%TF.GenerationSoftware,Altium Limited,Altium Designer,24.3.1 (35)*%
G04 Layer_Physical_Order=1*
G04 Layer_Color=255*
%FSLAX45Y45*%
%MOMM*%
%TF.SameCoordinates,C0A1E697-D952-45A1-8973-6DB72EE3D4FA*%
%TF.FilePolarity,Positive*%
%TF.FileFunction,Copper,L1,Top,Signal*%
%TF.Part,CustomerPanel*%
G01*
G75*
%TA.AperFunction,SMDPad,CuDef*%
%ADD10C,1.20000*%
%ADD11R,1.45000X0.95000*%
G04:AMPARAMS|DCode=12|XSize=3.048mm|YSize=2.032mm|CornerRadius=0.254mm|HoleSize=0mm|Usage=FLASHONLY|Rotation=0.000|XOffset=0mm|YOffset=0mm|HoleType=Round|Shape=RoundedRectangle|*
%AMROUNDEDRECTD12*
21,1,3.04800,1.52400,0,0,0.0*
21,1,2.54000,2.03200,0,0,0.0*
1,1,0.50800,1.27000,-0.76200*
1,1,0.50800,-1.27000,-0.76200*
1,1,0.50800,-1.27000,0.76200*
1,1,0.50800,1.27000,0.76200*
%
%ADD12ROUNDEDRECTD12*%
%ADD13R,3.15000X2.20000*%
%TA.AperFunction,Conductor*%
%ADD14C,0.50800*%
%ADD15C,1.52400*%
%TA.AperFunction,SMDPad,CuDef*%
G04:AMPARAMS|DCode=16|XSize=0.65mm|YSize=1mm|CornerRadius=0.08125mm|HoleSize=0mm|Usage=FLASHONLY|Rotation=90.000|XOffset=0mm|YOffset=0mm|HoleType=Round|Shape=RoundedRectangle|*
%AMROUNDEDRECTD16*
21,1,0.65000,0.83750,0,0,90.0*
21,1,0.48750,1.00000,0,0,90.0*
1,1,0.16250,0.41875,0.24375*
1,1,0.16250,0.41875,-0.24375*
1,1,0.16250,-0.41875,-0.24375*
1,1,0.16250,-0.41875,0.24375*
%
%ADD16ROUNDEDRECTD16*%
%ADD17R,0.65872X0.81213*%
%ADD18R,0.80872X0.81213*%
%ADD19R,0.81213X0.65872*%
%ADD20R,0.81213X0.80872*%
G04:AMPARAMS|DCode=21|XSize=0.80872mm|YSize=0.81213mm|CornerRadius=0mm|HoleSize=0mm|Usage=FLASHONLY|Rotation=45.000|XOffset=0mm|YOffset=0mm|HoleType=Round|Shape=Rectangle|*
%AMROTATEDRECTD21*
4,1,4,0.00121,-0.57306,-0.57306,0.00121,-0.00121,0.57306,0.57306,-0.00121,0.00121,-0.57306,0.0*
%
%ADD21ROTATEDRECTD21*%

G04:AMPARAMS|DCode=22|XSize=0.80872mm|YSize=0.81213mm|CornerRadius=0mm|HoleSize=0mm|Usage=FLASHONLY|Rotation=315.000|XOffset=0mm|YOffset=0mm|HoleType=Round|Shape=Rectangle|*
%AMROTATEDRECTD22*
4,1,4,-0.57306,-0.00121,0.00121,0.57306,0.57306,0.00121,-0.00121,-0.57306,-0.57306,-0.00121,0.0*
%
%ADD22ROTATEDRECTD22*%

%ADD23R,1.30000X1.40000*%
G04:AMPARAMS|DCode=24|XSize=1.95524mm|YSize=0.31247mm|CornerRadius=0mm|HoleSize=0mm|Usage=FLASHONLY|Rotation=135.000|XOffset=0mm|YOffset=0mm|HoleType=Round|Shape=Rectangle|*
%AMROTATEDRECTD24*
4,1,4,0.80176,-0.58080,0.58080,-0.80176,-0.80176,0.58080,-0.58080,0.80176,0.80176,-0.58080,0.0*
%
%ADD24ROTATEDRECTD24*%

G04:AMPARAMS|DCode=25|XSize=1.95524mm|YSize=0.31247mm|CornerRadius=0.15624mm|HoleSize=0mm|Usage=FLASHONLY|Rotation=135.000|XOffset=0mm|YOffset=0mm|HoleType=Round|Shape=RoundedRectangle|*
%AMROUNDEDRECTD25*
21,1,1.95524,0.00000,0,0,135.0*
21,1,1.64277,0.31247,0,0,135.0*
1,1,0.31247,-0.58080,0.58081*
1,1,0.31247,0.58081,-0.58080*
1,1,0.31247,0.58080,-0.58081*
1,1,0.31247,-0.58081,0.58080*
%
%ADD25ROUNDEDRECTD25*%
G04:AMPARAMS|DCode=26|XSize=0.31247mm|YSize=1.95524mm|CornerRadius=0.15624mm|HoleSize=0mm|Usage=FLASHONLY|Rotation=135.000|XOffset=0mm|YOffset=0mm|HoleType=Round|Shape=RoundedRectangle|*
%AMROUNDEDRECTD26*
21,1,0.31247,1.64277,0,0,135.0*
21,1,0.00000,1.95524,0,0,135.0*
1,1,0.31247,0.58080,0.58081*
1,1,0.31247,0.58081,0.58080*
1,1,0.31247,-0.58080,-0.58081*
1,1,0.31247,-0.58081,-0.58080*
%
%ADD26ROUNDEDRECTD26*%
%TA.AperFunction,Conductor*%
%ADD27C,0.25400*%
%ADD28C,0.22200*%
%ADD29C,1.27000*%
%TA.AperFunction,ComponentPad*%
%ADD30R,1.20000X1.20000*%
%ADD31C,1.20000*%
%ADD32C,1.10000*%
%TA.AperFunction,ViaPad*%
%ADD33C,4.20000*%
%TA.AperFunction,ComponentPad*%
%ADD34R,1.10000X1.10000*%
%ADD35C,1.50000*%
%ADD36R,4.10000X3.00000*%
%ADD37C,2.07000*%
%ADD38R,2.07000X2.07000*%
%ADD39R,1.20000X1.20000*%
%ADD40C,1.65000*%
%ADD41R,1.65000X1.65000*%
%TA.AperFunction,ViaPad*%
%ADD42C,0.80000*%
D10*
X4114800Y8420800D02*
D03*
X3800000Y9500000D02*
D03*
X2500000Y8000000D02*
D03*
X9214800Y8420800D02*
D03*
X8900000Y9500000D02*
D03*
X7600000Y8000000D02*
D03*
X3700000Y2600000D02*
D03*
X3225000Y400000D02*
D03*
X2400000Y800000D02*
D03*
X4000000Y2400000D02*
D03*
X900000Y1900000D02*
D03*
Y2400000D02*
D03*
X2300000Y3700000D02*
D03*
X2600000Y800000D02*
D03*
X8800000Y2600000D02*
D03*
X8325000Y400000D02*
D03*
X7500000Y800000D02*
D03*
X9100000Y2400000D02*
D03*
X6000000Y1900000D02*
D03*
Y2400000D02*
D03*
X7400000Y3700000D02*
D03*
X7700000Y800000D02*
D03*
D11*
X4100002Y8070001D02*
D03*
Y7870001D02*
D03*
X9200002Y8070001D02*
D03*
Y7870001D02*
D03*
D12*
X299999Y8099998D02*
D03*
Y9000001D02*
D03*
X5399999Y8099998D02*
D03*
Y9000001D02*
D03*
D13*
X959998Y8700998D02*
D03*
Y9401001D02*
D03*
X1721998Y7684998D02*
D03*
Y8385001D02*
D03*
X959998Y7684998D02*
D03*
Y8385001D02*
D03*
X1721998Y8700998D02*
D03*
Y9401001D02*
D03*
X6059998Y8700998D02*
D03*
Y9401001D02*
D03*
X6821998Y7684998D02*
D03*
Y8385001D02*
D03*
X6059998Y7684998D02*
D03*
Y8385001D02*
D03*
X6821998Y8700998D02*
D03*
Y9401001D02*
D03*
D14*
X4107401Y8077400D02*
Y8413401D01*
X4114800Y8420800D01*
X4100002Y8070001D02*
X4107401Y8077400D01*
X2489200Y7684998D02*
X2914995D01*
X1769501D02*
X2489200D01*
X2500000Y7695798D01*
Y8000000D01*
X3800000Y9110001D02*
X3810000Y9100001D01*
X3800000Y9110001D02*
Y9500000D01*
X2914995Y7684998D02*
X3199999Y7970001D01*
X3047599Y8242599D02*
X3365500Y8560500D01*
X4340105D01*
X4627001Y8847397D01*
X3047599Y7970001D02*
Y8242599D01*
X4627001Y8847397D02*
Y8973001D01*
X4500001Y9100001D02*
X4627001Y8973001D01*
X3399998Y7770001D02*
X3800003D01*
X3199999Y7970001D02*
X3399998Y7770001D01*
X3800003D02*
X3974998D01*
X4074998Y7870001D01*
X4100002D01*
X4125001D01*
X4248800Y7993801D01*
X4493798D01*
X4500001Y7999998D01*
X4100002Y8070001D02*
X4369999D01*
X4500001Y8199998D01*
X3888242Y8256762D02*
X4074998Y8070001D01*
X3813241Y8256762D02*
X3888242D01*
X3800003Y8270000D02*
X3813241Y8256762D01*
X3352399Y7970001D02*
X3499998D01*
X3800003Y8270000D01*
X9207401Y8077400D02*
Y8413401D01*
X9214800Y8420800D01*
X9200002Y8070001D02*
X9207401Y8077400D01*
X7589200Y7684998D02*
X8014995D01*
X6869501D02*
X7589200D01*
X7600000Y7695798D01*
Y8000000D01*
X8900000Y9110001D02*
X8910000Y9100001D01*
X8900000Y9110001D02*
Y9500000D01*
X8014995Y7684998D02*
X8299999Y7970001D01*
X8147599Y8242599D02*
X8465500Y8560500D01*
X9440105D01*
X9727001Y8847397D01*
X8147599Y7970001D02*
Y8242599D01*
X9727001Y8847397D02*
Y8973001D01*
X9600001Y9100001D02*
X9727001Y8973001D01*
X8499998Y7770001D02*
X8900003D01*
X8299999Y7970001D02*
X8499998Y7770001D01*
X8900003D02*
X9074998D01*
X9174998Y7870001D01*
X9200002D01*
X9225001D01*
X9348800Y7993801D01*
X9593798D01*
X9600001Y7999998D01*
X9200002Y8070001D02*
X9469999D01*
X9600001Y8199998D01*
X8988242Y8256762D02*
X9174998Y8070001D01*
X8913241Y8256762D02*
X8988242D01*
X8900003Y8270000D02*
X8913241Y8256762D01*
X8452399Y7970001D02*
X8599998D01*
X8900003Y8270000D01*
D15*
X3810000Y9100001D02*
X3900002D01*
X3499998D02*
X3810000D01*
X2498999Y9401001D02*
X2600000Y9300001D01*
X1721998Y9401001D02*
X2498999D01*
X2600000Y9300001D02*
X3299998D01*
X3499998Y9100001D01*
X959998Y9401001D02*
X1721998D01*
X3900002Y9100001D02*
X4000002Y9200001D01*
X4400001D01*
X4500001Y9100001D01*
X959998Y7684998D02*
X1721998D01*
X1769501D01*
X2600000Y8515501D01*
Y8800002D01*
X2700000Y8900002D01*
X3499998D01*
X3699998Y8700002D01*
X4000002D01*
X4200002Y8900002D01*
X4500001D01*
X299999Y9000001D02*
X660999D01*
X878698Y8782298D01*
Y8734800D02*
Y8782298D01*
Y8734800D02*
X912500Y8700998D01*
X959998D01*
Y8385001D02*
Y8700998D01*
X299999Y8099998D02*
X1389502D01*
X1674500Y8385001D01*
X1721998D01*
Y8700998D01*
X8910000Y9100001D02*
X9000002D01*
X8599998D02*
X8910000D01*
X7598999Y9401001D02*
X7700000Y9300001D01*
X6821998Y9401001D02*
X7598999D01*
X7700000Y9300001D02*
X8399998D01*
X8599998Y9100001D01*
X6059998Y9401001D02*
X6821998D01*
X9000002Y9100001D02*
X9100002Y9200001D01*
X9500001D01*
X9600001Y9100001D01*
X6059998Y7684998D02*
X6821998D01*
X6869501D01*
X7700000Y8515501D01*
Y8800002D01*
X7800000Y8900002D01*
X8599998D01*
X8799998Y8700002D01*
X9100002D01*
X9300002Y8900002D01*
X9600001D01*
X5399999Y9000001D02*
X5760999D01*
X5978698Y8782298D01*
Y8734800D02*
Y8782298D01*
Y8734800D02*
X6012500Y8700998D01*
X6059998D01*
Y8385001D02*
Y8700998D01*
X5399999Y8099998D02*
X6489502D01*
X6774500Y8385001D01*
X6821998D01*
Y8700998D01*
D16*
X4120500Y2667000D02*
D03*
X3880500Y2565000D02*
D03*
Y2769000D02*
D03*
X9220500Y2667000D02*
D03*
X8980500Y2565000D02*
D03*
Y2769000D02*
D03*
D17*
X2988671Y2108200D02*
D03*
X2853329D02*
D03*
Y2286000D02*
D03*
X2988671D02*
D03*
X3869329Y2095500D02*
D03*
X4004671D02*
D03*
X855071Y5080000D02*
D03*
X719729D02*
D03*
X465729Y3302000D02*
D03*
X601071D02*
D03*
X3725271Y5562600D02*
D03*
X3589929D02*
D03*
X1405529Y5588000D02*
D03*
X1540871D02*
D03*
X1405529Y5080000D02*
D03*
X1540871D02*
D03*
X8088671Y2108200D02*
D03*
X7953329D02*
D03*
Y2286000D02*
D03*
X8088671D02*
D03*
X8969329Y2095500D02*
D03*
X9104671D02*
D03*
X5955071Y5080000D02*
D03*
X5819729D02*
D03*
X5565729Y3302000D02*
D03*
X5701071D02*
D03*
X8825271Y5562600D02*
D03*
X8689929D02*
D03*
X6505529Y5588000D02*
D03*
X6640871D02*
D03*
X6505529Y5080000D02*
D03*
X6640871D02*
D03*
D18*
X3432329Y2794000D02*
D03*
X3552671D02*
D03*
X1362229Y863600D02*
D03*
X1482571D02*
D03*
X8532329Y2794000D02*
D03*
X8652671D02*
D03*
X6462229Y863600D02*
D03*
X6582571D02*
D03*
D19*
X3403600Y2353671D02*
D03*
Y2218329D02*
D03*
X3149600Y2353671D02*
D03*
Y2218329D02*
D03*
X8503600Y2353671D02*
D03*
Y2218329D02*
D03*
X8249600Y2353671D02*
D03*
Y2218329D02*
D03*
D20*
X2794000Y822171D02*
D03*
Y701829D02*
D03*
X7894000Y822171D02*
D03*
Y701829D02*
D03*
D21*
X3132453Y3259453D02*
D03*
X3217547Y3344547D02*
D03*
X3005453Y3386453D02*
D03*
X3090547Y3471547D02*
D03*
X2878453Y3513453D02*
D03*
X2963547Y3598547D02*
D03*
X3344547Y3217547D02*
D03*
X3259453Y3132453D02*
D03*
X1989453Y2395853D02*
D03*
X2074547Y2480947D02*
D03*
X8232453Y3259453D02*
D03*
X8317547Y3344547D02*
D03*
X8105453Y3386453D02*
D03*
X8190547Y3471547D02*
D03*
X7978453Y3513453D02*
D03*
X8063547Y3598547D02*
D03*
X8444547Y3217547D02*
D03*
X8359453Y3132453D02*
D03*
X7089453Y2395853D02*
D03*
X7174547Y2480947D02*
D03*
D22*
X2091053Y3547747D02*
D03*
X2176147Y3462653D02*
D03*
X7191053Y3547747D02*
D03*
X7276147Y3462653D02*
D03*
D23*
X1567400Y1117600D02*
D03*
X1277398D02*
D03*
X6667400D02*
D03*
X6377398D02*
D03*
D24*
X2640799Y2431293D02*
D03*
X7740799D02*
D03*
D25*
X2676151Y2466650D02*
D03*
X2711507Y2502007D02*
D03*
X2746864Y2537358D02*
D03*
X2782216Y2572715D02*
D03*
X2817573Y2608072D02*
D03*
X2852930Y2643429D02*
D03*
X2888286Y2678781D02*
D03*
X2923638Y2714137D02*
D03*
X2958995Y2749494D02*
D03*
X2994352Y2784846D02*
D03*
X3029703Y2820203D02*
D03*
X2439204Y3410707D02*
D03*
X2403847Y3375350D02*
D03*
X2368491Y3339993D02*
D03*
X2333139Y3304642D02*
D03*
X2297782Y3269285D02*
D03*
X2262425Y3233928D02*
D03*
X2227074Y3198571D02*
D03*
X2191717Y3163219D02*
D03*
X2156360Y3127863D02*
D03*
X2121003Y3092506D02*
D03*
X2085651Y3057154D02*
D03*
X2050295Y3021797D02*
D03*
X7776151Y2466650D02*
D03*
X7811507Y2502007D02*
D03*
X7846864Y2537358D02*
D03*
X7882216Y2572715D02*
D03*
X7917573Y2608072D02*
D03*
X7952929Y2643429D02*
D03*
X7988286Y2678781D02*
D03*
X8023638Y2714137D02*
D03*
X8058995Y2749494D02*
D03*
X8094352Y2784846D02*
D03*
X8129703Y2820203D02*
D03*
X7539204Y3410707D02*
D03*
X7503847Y3375350D02*
D03*
X7468491Y3339993D02*
D03*
X7433139Y3304642D02*
D03*
X7397782Y3269285D02*
D03*
X7362425Y3233928D02*
D03*
X7327073Y3198571D02*
D03*
X7291717Y3163219D02*
D03*
X7256360Y3127863D02*
D03*
X7221003Y3092506D02*
D03*
X7185651Y3057154D02*
D03*
X7150295Y3021797D02*
D03*
D26*
X3029703D02*
D03*
X2994352Y3057154D02*
D03*
X2958995Y3092506D02*
D03*
X2923638Y3127863D02*
D03*
X2888286Y3163219D02*
D03*
X2852930Y3198571D02*
D03*
X2817573Y3233928D02*
D03*
X2782216Y3269285D02*
D03*
X2746864Y3304642D02*
D03*
X2711507Y3339993D02*
D03*
X2676151Y3375350D02*
D03*
X2640799Y3410707D02*
D03*
X2050295Y2820203D02*
D03*
X2085651Y2784846D02*
D03*
X2121003Y2749494D02*
D03*
X2156360Y2714137D02*
D03*
X2191717Y2678781D02*
D03*
X2227074Y2643429D02*
D03*
X2262425Y2608072D02*
D03*
X2297782Y2572715D02*
D03*
X2333139Y2537358D02*
D03*
X2368491Y2502007D02*
D03*
X2403847Y2466650D02*
D03*
X2439204Y2431293D02*
D03*
X8129703Y3021797D02*
D03*
X8094352Y3057154D02*
D03*
X8058995Y3092506D02*
D03*
X8023638Y3127863D02*
D03*
X7988286Y3163219D02*
D03*
X7952929Y3198571D02*
D03*
X7917573Y3233928D02*
D03*
X7882216Y3269285D02*
D03*
X7846864Y3304642D02*
D03*
X7811507Y3339993D02*
D03*
X7776151Y3375350D02*
D03*
X7740799Y3410707D02*
D03*
X7150295Y2820203D02*
D03*
X7185651Y2784846D02*
D03*
X7221003Y2749494D02*
D03*
X7256360Y2714137D02*
D03*
X7291717Y2678781D02*
D03*
X7327073Y2643429D02*
D03*
X7362425Y2608072D02*
D03*
X7397782Y2572715D02*
D03*
X7433139Y2537358D02*
D03*
X7468491Y2502007D02*
D03*
X7503847Y2466650D02*
D03*
X7539204Y2431293D02*
D03*
D27*
X2085651Y2784846D02*
X2156360Y2714137D01*
X2050295Y3021797D02*
X2108375Y2963717D01*
X2050295Y2820203D02*
X2108375Y2878283D01*
Y2963717D01*
X2050295Y2820203D02*
X2085651Y2784846D01*
X2262425Y2608072D02*
X2297782Y2572715D01*
X2333139Y2537358D01*
X2540002Y2489373D02*
X2582718D01*
X2497285D02*
X2540002D01*
Y2921000D01*
X2640799Y2431293D02*
X2746864Y2537358D01*
X2439204Y2431293D02*
X2497285Y2489373D01*
X2582718D02*
X2640799Y2431293D01*
X2888286Y2678781D02*
X2994352Y2784846D01*
X2746864Y2537358D02*
X2888286Y2678781D01*
X2722405Y3209473D02*
X2782216Y3269285D01*
X2540002Y3027070D02*
X2722405Y3209473D01*
X2540002Y3027065D02*
Y3027070D01*
X1850000Y4980000D02*
X1950400Y5080400D01*
X1540871Y5588000D02*
X1883987D01*
X1950400Y5521587D01*
Y5080400D02*
Y5521587D01*
X1826159Y5372959D02*
Y5456159D01*
X1850000Y5480000D01*
X1540871Y5080000D02*
Y5087671D01*
X1826159Y5372959D01*
X1540871Y4851035D02*
Y5080000D01*
X2878453Y3513453D02*
Y3513453D01*
X1540871Y4851035D02*
X2878453Y3513453D01*
X3005332Y3386573D02*
Y3496912D01*
X1850000Y4980000D02*
X3046253Y3783747D01*
X3005332Y3386573D02*
X3005453Y3386453D01*
X3005332Y3496912D02*
X3046253Y3537833D01*
Y3783747D01*
X2852930Y3198571D02*
X3005453Y3351094D01*
Y3386453D01*
X3132332Y3259574D02*
X3132332Y3259573D01*
Y3419985D02*
X3300000Y3587652D01*
X3132332Y3259573D02*
X3132453Y3259453D01*
X3132332Y3259573D02*
Y3419985D01*
X3300000Y3587652D02*
Y4980000D01*
X2984640Y3259574D02*
X3132332D01*
X2888286Y3163219D02*
X2984640Y3259574D01*
X3300000Y4980000D02*
Y5265000D01*
X3589330Y5554330D01*
Y5562001D01*
X3679500Y2769000D02*
X3700000Y2748500D01*
Y2600000D02*
Y2748500D01*
X2223267Y723267D02*
X2300000Y800000D01*
X2400000D01*
X3200000Y177800D02*
X3225000Y202800D01*
Y400000D01*
X1292272Y2279599D02*
X1742738D01*
X901700D02*
X1292272D01*
X1742738D02*
X1784402D01*
X2016797Y2079600D02*
X2403847Y2466650D01*
X901700Y2079600D02*
X2016797D01*
X900000Y1900000D02*
Y2077900D01*
X457202Y2079600D02*
X901700D01*
X900000Y2077900D02*
X901700Y2079600D01*
X1784402Y2279599D02*
X1879602Y2184400D01*
X2050884D02*
X2368491Y2502007D01*
X1879602Y2184400D02*
X2050884D01*
X3826871Y1917700D02*
X3834541D01*
X4004671Y2087829D01*
Y2095500D01*
X4103000Y2667000D02*
X4120500D01*
X4000000Y2400000D02*
Y2564000D01*
X4103000Y2667000D01*
X3733800Y3132332D02*
X3789934D01*
X3259574D02*
X3733800D01*
X3725271Y3140861D02*
Y5562600D01*
Y3140861D02*
X3733800Y3132332D01*
X2805165Y690664D02*
X2866097Y751596D01*
X2698100Y797558D02*
X2793829Y701829D01*
X2794000D01*
X2600000Y800000D02*
X2602442Y797558D01*
X2698100D01*
X457202Y2279599D02*
X901700D01*
X900000Y2281299D02*
Y2400000D01*
Y2281299D02*
X901700Y2279599D01*
X101602Y4111600D02*
Y5083521D01*
X855071Y5080000D02*
Y5087671D01*
X777341Y5165400D02*
X855071Y5087671D01*
X183480Y5165400D02*
X777341D01*
X101602Y5083521D02*
X183480Y5165400D01*
X2101695Y3630453D02*
X2176268Y3555879D01*
X2006199Y3556000D02*
X2080652Y3630453D01*
X2101695D01*
X3789934Y3132332D02*
X3937766Y2984500D01*
X4635500Y2803500D02*
Y2921000D01*
X3937766Y2984500D02*
X4572000D01*
X4635500Y2921000D01*
Y2803500D02*
X4720900Y2718100D01*
X3259453Y3132453D02*
X3259574Y3132332D01*
X4720900Y2532979D02*
Y2718100D01*
X4527725Y2339804D02*
X4720900Y2532979D01*
X4139511Y2339804D02*
X4527725D01*
X3946335Y2146628D02*
X4139511Y2339804D01*
X3946335Y2110379D02*
Y2146628D01*
X3931456Y2095500D02*
X3946335Y2110379D01*
X3869329Y2095500D02*
X3931456D01*
X4120500Y2667000D02*
X4572000D01*
X4635500Y2603500D01*
X4004671Y2087829D02*
X4024907Y2067593D01*
X4032577D01*
X4204671Y1895500D01*
X4635500D01*
X3552671Y2794000D02*
X3654500D01*
X3679500Y2769000D01*
X3880500D01*
X3524935Y2766264D02*
X3552671Y2794000D01*
X3524935Y2111645D02*
Y2766264D01*
X3329090Y1915800D02*
X3524935Y2111645D01*
X3071607Y1915800D02*
X3329090D01*
X2930335Y2057072D02*
Y2093321D01*
Y2057072D02*
X3071607Y1915800D01*
X2915456Y2108200D02*
X2930335Y2093321D01*
X2853329Y2108200D02*
X2915456D01*
X3302000Y1981200D02*
X3403602Y2082802D01*
Y2198329D01*
X2988671Y2466322D02*
X3093456Y2571107D01*
Y2743758D01*
X2988671Y2286000D02*
Y2466322D01*
X3088902Y2748311D02*
X3093456Y2743758D01*
X3088902Y2748311D02*
Y2761004D01*
X3029703Y2820203D02*
X3088902Y2761004D01*
X2853329Y2108200D02*
Y2286000D01*
X3238500Y2518771D02*
X3403600Y2353671D01*
X3238500Y2518771D02*
Y2857500D01*
X3053863Y3042137D02*
X3238500Y2857500D01*
X3050043Y3042137D02*
X3087783Y3079877D01*
X3029703Y3021797D02*
X3050043Y3042137D01*
X3053863D01*
X2368491Y3339993D02*
X2533484Y3175000D01*
X2297782Y3269285D02*
X2540002Y3027065D01*
Y2921000D02*
Y3027065D01*
X3071354Y3132574D02*
X3259332D01*
X855071Y5080000D02*
X1405529D01*
X2995937Y3057154D02*
Y3057157D01*
X3071354Y3132574D01*
X2878573Y3393613D02*
X2881320Y3390867D01*
Y3299258D02*
Y3390867D01*
X2817573Y3233928D02*
Y3235510D01*
X2878453Y3513453D02*
X2878573Y3513332D01*
Y3393613D02*
Y3513332D01*
X2817573Y3235510D02*
X2881320Y3299258D01*
X3438146Y6045200D02*
X3725271Y5758075D01*
Y5562600D02*
Y5758075D01*
X3589330Y5562001D02*
X3589929Y5562600D01*
X1855059Y6045200D02*
X3438146D01*
X1405529Y5595671D02*
X1855059Y6045200D01*
X1405529Y5588000D02*
Y5595671D01*
Y5080000D02*
Y5588000D01*
X2794000Y406400D02*
Y701829D01*
X254002Y3556000D02*
X2006199D01*
X2176268Y3462774D02*
Y3555879D01*
X2176147Y3462653D02*
X2176268Y3462774D01*
X101602Y2540000D02*
X2015494D01*
X2074547Y2480947D02*
X2074547D01*
X2015494Y2540000D02*
X2074547Y2480947D01*
X2074547D02*
Y2490903D01*
X2227074Y2643429D01*
X2176147Y3461633D02*
X2333139Y3304642D01*
X2176147Y3461633D02*
Y3462653D01*
X254002Y3302000D02*
X465729D01*
X3149602Y2198329D02*
X3403602D01*
X2895602Y775178D02*
Y965200D01*
X1782574Y2615032D02*
X2126388D01*
X2190137Y2678781D02*
X2191717D01*
X2126388Y2615032D02*
X2190137Y2678781D01*
X101602Y2540000D02*
Y3541121D01*
Y2235200D02*
Y2540000D01*
X2159469Y3478312D02*
Y3479338D01*
X101602Y3541121D02*
Y4111600D01*
X254002Y4264000D01*
X101602Y2235200D02*
X457202Y1879600D01*
X101602Y3541121D02*
X116481Y3556000D01*
X254002D01*
X2787489Y2921000D02*
X2958995Y3092506D01*
X2866097Y751596D02*
X2872020D01*
X2895602Y775178D01*
X1095605Y3302000D02*
X1782574Y2615032D01*
X601071Y3302000D02*
X1095605D01*
X7185651Y2784846D02*
X7256360Y2714137D01*
X7150295Y3021797D02*
X7208375Y2963717D01*
X7150295Y2820203D02*
X7208375Y2878283D01*
Y2963717D01*
X7150295Y2820203D02*
X7185651Y2784846D01*
X7362425Y2608072D02*
X7397782Y2572715D01*
X7433139Y2537358D01*
X7640001Y2489373D02*
X7682718D01*
X7597285D02*
X7640001D01*
Y2921000D01*
X7740799Y2431293D02*
X7846864Y2537358D01*
X7539204Y2431293D02*
X7597285Y2489373D01*
X7682718D02*
X7740799Y2431293D01*
X7988286Y2678781D02*
X8094352Y2784846D01*
X7846864Y2537358D02*
X7988286Y2678781D01*
X7822404Y3209473D02*
X7882216Y3269285D01*
X7640001Y3027070D02*
X7822404Y3209473D01*
X7640001Y3027065D02*
Y3027070D01*
X6950000Y4980000D02*
X7050400Y5080400D01*
X6640871Y5588000D02*
X6983987D01*
X7050400Y5521587D01*
Y5080400D02*
Y5521587D01*
X6926159Y5372959D02*
Y5456159D01*
X6950000Y5480000D01*
X6640871Y5080000D02*
Y5087671D01*
X6926159Y5372959D01*
X6640871Y4851035D02*
Y5080000D01*
X7978453Y3513453D02*
Y3513453D01*
X6640871Y4851035D02*
X7978453Y3513453D01*
X8105332Y3386573D02*
Y3496912D01*
X6950000Y4980000D02*
X8146253Y3783747D01*
X8105332Y3386573D02*
X8105453Y3386453D01*
X8105332Y3496912D02*
X8146253Y3537833D01*
Y3783747D01*
X7952929Y3198571D02*
X8105453Y3351094D01*
Y3386453D01*
X8232332Y3259574D02*
X8232332Y3259573D01*
Y3419985D02*
X8400000Y3587652D01*
X8232332Y3259573D02*
X8232453Y3259453D01*
X8232332Y3259573D02*
Y3419985D01*
X8400000Y3587652D02*
Y4980000D01*
X8084640Y3259574D02*
X8232332D01*
X7988286Y3163219D02*
X8084640Y3259574D01*
X8400000Y4980000D02*
Y5265000D01*
X8689330Y5554330D01*
Y5562001D01*
X8779500Y2769000D02*
X8800000Y2748500D01*
Y2600000D02*
Y2748500D01*
X7323267Y723267D02*
X7400000Y800000D01*
X7500000D01*
X8300000Y177800D02*
X8325000Y202800D01*
Y400000D01*
X6392272Y2279599D02*
X6842738D01*
X6001700D02*
X6392272D01*
X6842738D02*
X6884402D01*
X7116797Y2079600D02*
X7503847Y2466650D01*
X6001700Y2079600D02*
X7116797D01*
X6000000Y1900000D02*
Y2077900D01*
X5557201Y2079600D02*
X6001700D01*
X6000000Y2077900D02*
X6001700Y2079600D01*
X6884402Y2279599D02*
X6979601Y2184400D01*
X7150884D02*
X7468491Y2502007D01*
X6979601Y2184400D02*
X7150884D01*
X8926871Y1917700D02*
X8934541D01*
X9104671Y2087829D01*
Y2095500D01*
X9203000Y2667000D02*
X9220500D01*
X9100000Y2400000D02*
Y2564000D01*
X9203000Y2667000D01*
X8833800Y3132332D02*
X8889934D01*
X8359574D02*
X8833800D01*
X8825271Y3140861D02*
Y5562600D01*
Y3140861D02*
X8833800Y3132332D01*
X7905165Y690664D02*
X7966097Y751596D01*
X7798100Y797558D02*
X7893829Y701829D01*
X7894000D01*
X7700000Y800000D02*
X7702442Y797558D01*
X7798100D01*
X5557201Y2279599D02*
X6001700D01*
X6000000Y2281299D02*
Y2400000D01*
Y2281299D02*
X6001700Y2279599D01*
X5201601Y4111600D02*
Y5083521D01*
X5955071Y5080000D02*
Y5087671D01*
X5877341Y5165400D02*
X5955071Y5087671D01*
X5283480Y5165400D02*
X5877341D01*
X5201601Y5083521D02*
X5283480Y5165400D01*
X7201695Y3630453D02*
X7276268Y3555879D01*
X7106199Y3556000D02*
X7180652Y3630453D01*
X7201695D01*
X8889934Y3132332D02*
X9037766Y2984500D01*
X9735500Y2803500D02*
Y2921000D01*
X9037766Y2984500D02*
X9672000D01*
X9735500Y2921000D01*
Y2803500D02*
X9820900Y2718100D01*
X8359453Y3132453D02*
X8359574Y3132332D01*
X9820900Y2532979D02*
Y2718100D01*
X9627725Y2339804D02*
X9820900Y2532979D01*
X9239511Y2339804D02*
X9627725D01*
X9046335Y2146628D02*
X9239511Y2339804D01*
X9046335Y2110379D02*
Y2146628D01*
X9031456Y2095500D02*
X9046335Y2110379D01*
X8969329Y2095500D02*
X9031456D01*
X9220500Y2667000D02*
X9672000D01*
X9735500Y2603500D01*
X9104671Y2087829D02*
X9124907Y2067593D01*
X9132577D01*
X9304671Y1895500D01*
X9735500D01*
X8652671Y2794000D02*
X8754500D01*
X8779500Y2769000D01*
X8980500D01*
X8624935Y2766264D02*
X8652671Y2794000D01*
X8624935Y2111645D02*
Y2766264D01*
X8429090Y1915800D02*
X8624935Y2111645D01*
X8171607Y1915800D02*
X8429090D01*
X8030335Y2057072D02*
Y2093321D01*
Y2057072D02*
X8171607Y1915800D01*
X8015456Y2108200D02*
X8030335Y2093321D01*
X7953329Y2108200D02*
X8015456D01*
X8402000Y1981200D02*
X8503601Y2082802D01*
Y2198329D01*
X8088671Y2466322D02*
X8193456Y2571107D01*
Y2743758D01*
X8088671Y2286000D02*
Y2466322D01*
X8188902Y2748311D02*
X8193456Y2743758D01*
X8188902Y2748311D02*
Y2761004D01*
X8129703Y2820203D02*
X8188902Y2761004D01*
X7953329Y2108200D02*
Y2286000D01*
X8338500Y2518771D02*
X8503600Y2353671D01*
X8338500Y2518771D02*
Y2857500D01*
X8153863Y3042137D02*
X8338500Y2857500D01*
X8150043Y3042137D02*
X8187783Y3079877D01*
X8129703Y3021797D02*
X8150043Y3042137D01*
X8153863D01*
X7468491Y3339993D02*
X7633484Y3175000D01*
X7397782Y3269285D02*
X7640001Y3027065D01*
Y2921000D02*
Y3027065D01*
X8171353Y3132574D02*
X8359332D01*
X5955071Y5080000D02*
X6505529D01*
X8095937Y3057154D02*
Y3057157D01*
X8171353Y3132574D01*
X7978573Y3393613D02*
X7981320Y3390867D01*
Y3299258D02*
Y3390867D01*
X7917573Y3233928D02*
Y3235510D01*
X7978453Y3513453D02*
X7978573Y3513332D01*
Y3393613D02*
Y3513332D01*
X7917573Y3235510D02*
X7981320Y3299258D01*
X8538145Y6045200D02*
X8825271Y5758075D01*
Y5562600D02*
Y5758075D01*
X8689330Y5562001D02*
X8689929Y5562600D01*
X6955058Y6045200D02*
X8538145D01*
X6505529Y5595671D02*
X6955058Y6045200D01*
X6505529Y5588000D02*
Y5595671D01*
Y5080000D02*
Y5588000D01*
X7894000Y406400D02*
Y701829D01*
X5354001Y3556000D02*
X7106199D01*
X7276268Y3462774D02*
Y3555879D01*
X7276147Y3462653D02*
X7276268Y3462774D01*
X5201601Y2540000D02*
X7115494D01*
X7174547Y2480947D02*
X7174547D01*
X7115494Y2540000D02*
X7174547Y2480947D01*
X7174547D02*
Y2490903D01*
X7327073Y2643429D01*
X7276147Y3461633D02*
X7433139Y3304642D01*
X7276147Y3461633D02*
Y3462653D01*
X5354001Y3302000D02*
X5565729D01*
X8249601Y2198329D02*
X8503601D01*
X7995601Y775178D02*
Y965200D01*
X6882573Y2615032D02*
X7226388D01*
X7290137Y2678781D02*
X7291717D01*
X7226388Y2615032D02*
X7290137Y2678781D01*
X5201601Y2540000D02*
Y3541121D01*
Y2235200D02*
Y2540000D01*
X7259469Y3478312D02*
Y3479338D01*
X5201601Y3541121D02*
Y4111600D01*
X5354001Y4264000D01*
X5201601Y2235200D02*
X5557201Y1879600D01*
X5201601Y3541121D02*
X5216481Y3556000D01*
X5354001D01*
X7887489Y2921000D02*
X8058995Y3092506D01*
X7966097Y751596D02*
X7972020D01*
X7995601Y775178D01*
X6195605Y3302000D02*
X6882573Y2615032D01*
X5701071Y3302000D02*
X6195605D01*
D28*
X2640799Y3410704D02*
X2782216Y3269287D01*
X2921190Y3127863D02*
X2923638D01*
X2859042Y3065715D02*
X2921190Y3127863D01*
X2813871Y3065715D02*
X2859042D01*
X2720068Y3159518D02*
X2813871Y3065715D01*
X2720068Y3159518D02*
Y3192178D01*
X2722405Y3194514D02*
Y3209473D01*
X2720068Y3192178D02*
X2722405Y3194514D01*
X2640799Y3410704D02*
Y3410707D01*
X2782216Y3269285D02*
Y3269287D01*
X2478619Y3315539D02*
X2480955Y3313203D01*
X2543295D01*
X2640799Y3410707D01*
X2403847Y3375350D02*
X2463659Y3315539D01*
X2478619D01*
X2191717Y3163219D02*
X2262425Y3233928D01*
X2297782Y3269285D01*
X2156360Y3127863D02*
X2191717Y3163219D01*
X2085651Y3057154D02*
X2156360Y3127863D01*
X2050295Y3021797D02*
X2085651Y3057154D01*
X1751200Y5131200D02*
X1850000Y5230000D01*
X1751200Y4939076D02*
Y5131200D01*
Y4939076D02*
X2963427Y3726849D01*
Y3598668D02*
Y3726849D01*
Y3598668D02*
X2963547Y3598547D01*
X3090427Y3471668D02*
X3090547Y3471547D01*
X3090427Y3471668D02*
Y4264573D01*
X2655000Y4700000D02*
X3090427Y4264573D01*
X2600000Y4700000D02*
X2655000D01*
X2219955Y3629956D02*
X2439204Y3410707D01*
X1589405Y4260506D02*
X2219955Y3629956D01*
X2229956D01*
X2300000Y3700000D01*
X719729Y5072329D02*
Y5080000D01*
Y5072329D02*
X1531553Y4260506D01*
X1589405D01*
X3898000Y2565000D02*
X3919400Y2586400D01*
X3880500Y2565000D02*
X3898000D01*
X3919400Y2586400D02*
Y2603900D01*
X4000500Y2685000D01*
Y2794000D01*
X2784004Y834497D02*
X2794002D01*
X3936093Y2858407D02*
X4000500Y2794000D01*
X3488435D02*
Y2844465D01*
Y2331305D02*
Y2794000D01*
X3432329D02*
X3488435D01*
X3149600Y2353671D02*
X3157271D01*
X3141929D02*
X3149600D01*
X3157271D02*
X3214007Y2296935D01*
X3454065D01*
X3488435Y2331305D01*
Y2844465D02*
X3502377Y2858407D01*
X3936093D01*
X3065300Y2192500D02*
Y2277041D01*
X3141929Y2353671D01*
X2988671Y2115871D02*
X3065300Y2192500D01*
X2988671Y2108200D02*
Y2115871D01*
X3022600Y2921000D02*
X3149602Y2793998D01*
Y2373671D02*
Y2793998D01*
X2787489Y2921000D02*
X3022600D01*
X2540002D02*
X2787489D01*
X254002Y5080000D02*
X719729D01*
X3344427Y3217668D02*
Y3328786D01*
X3378200Y3362559D01*
Y3378200D01*
X3344427Y3217668D02*
X3344547Y3217547D01*
X3217547Y3344547D02*
X3217668Y3344426D01*
X3328786D01*
X3362559Y3378200D01*
X3378200D01*
X3344547Y3217547D02*
X3369947D01*
X2090932Y3456783D02*
X2218619Y3329096D01*
X2237971D02*
X2297782Y3269285D01*
X2090932Y3547626D02*
X2091053Y3547747D01*
X2090932Y3456783D02*
Y3547626D01*
X2218619Y3329096D02*
X2237971D01*
X1989574Y2395732D02*
X2080417D01*
X2155653Y2470968D01*
Y2501300D01*
X1989453Y2395853D02*
X1989574Y2395732D01*
X2155653Y2501300D02*
X2262425Y2608072D01*
X2528942Y2874589D02*
Y2909941D01*
X2540002Y2921000D01*
X2262425Y2608072D02*
X2528942Y2874589D01*
X2663298Y955203D02*
Y965200D01*
Y955203D02*
X2784004Y834497D01*
X7740799Y3410704D02*
X7882216Y3269287D01*
X8021190Y3127863D02*
X8023638D01*
X7959042Y3065715D02*
X8021190Y3127863D01*
X7913871Y3065715D02*
X7959042D01*
X7820068Y3159518D02*
X7913871Y3065715D01*
X7820068Y3159518D02*
Y3192178D01*
X7822404Y3194514D02*
Y3209473D01*
X7820068Y3192178D02*
X7822404Y3194514D01*
X7740799Y3410704D02*
Y3410707D01*
X7882216Y3269285D02*
Y3269287D01*
X7578619Y3315539D02*
X7580955Y3313203D01*
X7643295D01*
X7740799Y3410707D01*
X7503847Y3375350D02*
X7563659Y3315539D01*
X7578619D01*
X7291717Y3163219D02*
X7362425Y3233928D01*
X7397782Y3269285D01*
X7256360Y3127863D02*
X7291717Y3163219D01*
X7185651Y3057154D02*
X7256360Y3127863D01*
X7150295Y3021797D02*
X7185651Y3057154D01*
X6851200Y5131200D02*
X6950000Y5230000D01*
X6851200Y4939076D02*
Y5131200D01*
Y4939076D02*
X8063427Y3726849D01*
Y3598668D02*
Y3726849D01*
Y3598668D02*
X8063547Y3598547D01*
X8190427Y3471668D02*
X8190547Y3471547D01*
X8190427Y3471668D02*
Y4264573D01*
X7755000Y4700000D02*
X8190427Y4264573D01*
X7700000Y4700000D02*
X7755000D01*
X7319955Y3629956D02*
X7539204Y3410707D01*
X6689405Y4260506D02*
X7319955Y3629956D01*
X7329956D01*
X7400000Y3700000D01*
X5819729Y5072329D02*
Y5080000D01*
Y5072329D02*
X6631553Y4260506D01*
X6689405D01*
X8998000Y2565000D02*
X9019400Y2586400D01*
X8980500Y2565000D02*
X8998000D01*
X9019400Y2586400D02*
Y2603900D01*
X9100500Y2685000D01*
Y2794000D01*
X7884004Y834497D02*
X7894001D01*
X9036093Y2858407D02*
X9100500Y2794000D01*
X8588435D02*
Y2844465D01*
Y2331305D02*
Y2794000D01*
X8532329D02*
X8588435D01*
X8249600Y2353671D02*
X8257271D01*
X8241929D02*
X8249600D01*
X8257271D02*
X8314007Y2296935D01*
X8554065D01*
X8588435Y2331305D01*
Y2844465D02*
X8602377Y2858407D01*
X9036093D01*
X8165300Y2192500D02*
Y2277041D01*
X8241929Y2353671D01*
X8088671Y2115871D02*
X8165300Y2192500D01*
X8088671Y2108200D02*
Y2115871D01*
X8122600Y2921000D02*
X8249601Y2793998D01*
Y2373671D02*
Y2793998D01*
X7887489Y2921000D02*
X8122600D01*
X7640001D02*
X7887489D01*
X5354001Y5080000D02*
X5819729D01*
X8444427Y3217668D02*
Y3328786D01*
X8478200Y3362559D01*
Y3378200D01*
X8444427Y3217668D02*
X8444547Y3217547D01*
X8317547Y3344547D02*
X8317668Y3344426D01*
X8428786D01*
X8462559Y3378200D01*
X8478200D01*
X8444547Y3217547D02*
X8469947D01*
X7190932Y3456783D02*
X7318619Y3329096D01*
X7337971D02*
X7397782Y3269285D01*
X7190932Y3547626D02*
X7191053Y3547747D01*
X7190932Y3456783D02*
Y3547626D01*
X7318619Y3329096D02*
X7337971D01*
X7089574Y2395732D02*
X7180417D01*
X7255653Y2470968D01*
Y2501300D01*
X7089453Y2395853D02*
X7089574Y2395732D01*
X7255653Y2501300D02*
X7362425Y2608072D01*
X7628942Y2874589D02*
Y2909941D01*
X7640001Y2921000D01*
X7362425Y2608072D02*
X7628942Y2874589D01*
X7763298Y955203D02*
Y965200D01*
Y955203D02*
X7884004Y834497D01*
D29*
X2223267Y723267D02*
X2540000Y406534D01*
X1828934Y1117600D02*
X2223267Y723267D01*
X3200000Y177800D02*
X3698065D01*
X2514466D02*
X3200000D01*
X2286000Y406266D02*
Y406400D01*
Y406266D02*
X2514466Y177800D01*
X3746202Y253701D02*
X3810002Y317500D01*
X3746202Y225937D02*
Y253701D01*
X3698065Y177800D02*
X3746202Y225937D01*
X2794000Y1270000D02*
X3610002Y453998D01*
Y317500D02*
Y453998D01*
X1424798Y1270000D02*
X2794000D01*
X1277398Y1117600D02*
Y1122600D01*
X1424798Y1270000D01*
X2540000Y406400D02*
Y406534D01*
X1567400Y1117600D02*
X1828934D01*
X1567400Y928431D02*
Y1117600D01*
X1502569Y863600D02*
X1567400Y928431D01*
X1502569Y863600D02*
X1533501Y832668D01*
Y317500D02*
Y832668D01*
X1277398Y1117600D02*
X1278898Y1116100D01*
Y926931D02*
X1342229Y863600D01*
X1278898Y926931D02*
Y1116100D01*
X1333502Y854873D02*
X1342229Y863600D01*
X1333502Y317500D02*
Y854873D01*
X7323267Y723267D02*
X7640000Y406534D01*
X6928934Y1117600D02*
X7323267Y723267D01*
X8300000Y177800D02*
X8798065D01*
X7614466D02*
X8300000D01*
X7386000Y406266D02*
Y406400D01*
Y406266D02*
X7614466Y177800D01*
X8846202Y253701D02*
X8910001Y317500D01*
X8846202Y225937D02*
Y253701D01*
X8798065Y177800D02*
X8846202Y225937D01*
X7894000Y1270000D02*
X8710002Y453998D01*
Y317500D02*
Y453998D01*
X6524798Y1270000D02*
X7894000D01*
X6377398Y1117600D02*
Y1122600D01*
X6524798Y1270000D01*
X7640000Y406400D02*
Y406534D01*
X6667400Y1117600D02*
X6928934D01*
X6667400Y928431D02*
Y1117600D01*
X6602569Y863600D02*
X6667400Y928431D01*
X6602569Y863600D02*
X6633501Y832668D01*
Y317500D02*
Y832668D01*
X6377398Y1117600D02*
X6378898Y1116100D01*
Y926931D02*
X6442229Y863600D01*
X6378898Y926931D02*
Y1116100D01*
X6433501Y854873D02*
X6442229Y863600D01*
X6433501Y317500D02*
Y854873D01*
D30*
X4500001Y8199998D02*
D03*
Y9100001D02*
D03*
X2600000Y9300001D02*
D03*
X9600001Y8199998D02*
D03*
Y9100001D02*
D03*
X7700000Y9300001D02*
D03*
X4635500Y1895500D02*
D03*
Y2603500D02*
D03*
X254002Y4264000D02*
D03*
Y5080000D02*
D03*
X457202Y2279599D02*
D03*
X9735500Y1895500D02*
D03*
Y2603500D02*
D03*
X5354001Y4264000D02*
D03*
Y5080000D02*
D03*
X5557201Y2279599D02*
D03*
D31*
X4500001Y7999998D02*
D03*
X3800003Y8270000D02*
D03*
Y7770001D02*
D03*
X4500001Y8900002D02*
D03*
X4000002Y9200001D02*
D03*
Y8700002D02*
D03*
X2600000Y8800002D02*
D03*
X9600001Y7999998D02*
D03*
X8900003Y8270000D02*
D03*
Y7770001D02*
D03*
X9600001Y8900002D02*
D03*
X9100002Y9200001D02*
D03*
Y8700002D02*
D03*
X7700000Y8800002D02*
D03*
X4635500Y2095500D02*
D03*
Y2803500D02*
D03*
X1533501Y317500D02*
D03*
X3810002D02*
D03*
X254002Y4064000D02*
D03*
Y4880000D02*
D03*
X457202Y2079600D02*
D03*
Y1879600D02*
D03*
Y1679600D02*
D03*
X9735500Y2095500D02*
D03*
Y2803500D02*
D03*
X6633501Y317500D02*
D03*
X8910001D02*
D03*
X5354001Y4064000D02*
D03*
Y4880000D02*
D03*
X5557201Y2079600D02*
D03*
Y1879600D02*
D03*
Y1679600D02*
D03*
D32*
X3352399Y7970001D02*
D03*
X3199999D02*
D03*
X3047599D02*
D03*
X3499998Y8900002D02*
D03*
X8452399Y7970001D02*
D03*
X8299999D02*
D03*
X8147599D02*
D03*
X8599998Y8900002D02*
D03*
D33*
X4600001Y7399999D02*
D03*
Y9700000D02*
D03*
X299999D02*
D03*
Y7399999D02*
D03*
X9700001D02*
D03*
Y9700000D02*
D03*
X5399999D02*
D03*
Y7399999D02*
D03*
X4600000Y6700000D02*
D03*
X300000D02*
D03*
X300001Y299999D02*
D03*
X4600002D02*
D03*
X9700000Y6700000D02*
D03*
X5400000D02*
D03*
X5400001Y299999D02*
D03*
X9700002D02*
D03*
D34*
X3499998Y9100001D02*
D03*
X8599998D02*
D03*
D35*
X1850000Y4980000D02*
D03*
Y5480000D02*
D03*
Y5230000D02*
D03*
X3300000Y4980000D02*
D03*
Y5480000D02*
D03*
X6950000Y4980000D02*
D03*
Y5480000D02*
D03*
Y5230000D02*
D03*
X8400000Y4980000D02*
D03*
Y5480000D02*
D03*
D36*
X2600000Y4700000D02*
D03*
Y5760000D02*
D03*
X7700000Y4700000D02*
D03*
Y5760000D02*
D03*
D37*
X2286000Y406400D02*
D03*
X2540000D02*
D03*
X7386000D02*
D03*
X7640000D02*
D03*
D38*
X2794000D02*
D03*
X7894000D02*
D03*
D39*
X1333502Y317500D02*
D03*
X3610002D02*
D03*
X6433501D02*
D03*
X8710002D02*
D03*
D40*
X254002Y3048000D02*
D03*
Y3302000D02*
D03*
X5354001Y3048000D02*
D03*
Y3302000D02*
D03*
D41*
X254002Y3556000D02*
D03*
X5354001D02*
D03*
D42*
X3826871Y1917700D02*
D03*
X3302000Y1981200D02*
D03*
X2533484Y3175000D02*
D03*
X3378200Y3378200D02*
D03*
X2540002Y2921000D02*
D03*
X2895602Y965200D02*
D03*
X2663298D02*
D03*
X8926871Y1917700D02*
D03*
X8402000Y1981200D02*
D03*
X7633484Y3175000D02*
D03*
X8478200Y3378200D02*
D03*
X7640001Y2921000D02*
D03*
X7995601Y965200D02*
D03*
X7763298D02*
D03*
%TF.MD5,1edec275da905f2bb4638d06e5fe4e0b*%
M02*
