%TF.GenerationSoftware,Altium Limited,Altium Designer,24.3.1 (35)*%
G04 Layer_Color=0*
%FSLAX45Y45*%
%MOMM*%
%TF.SameCoordinates,C0A1E697-D952-45A1-8973-6DB72EE3D4FA*%
%TF.FilePolarity,Positive*%
%TF.FileFunction,Plated,1,2,PTH,Drill*%
%TF.Part,CustomerPanel*%
G01*
G75*
%TA.AperFunction,ComponentDrill*%
%ADD70C,0.80000*%
%ADD71C,0.89000*%
%ADD72C,0.70000*%
%TA.AperFunction,OtherDrill,Pad Free-g (46mm,74mm)*%
%ADD73C,3.40000*%
%TA.AperFunction,OtherDrill,Pad Free-g (46mm,97mm)*%
%ADD74C,3.40000*%
%TA.AperFunction,OtherDrill,Pad Free-g (3mm,97mm)*%
%ADD75C,3.40000*%
%TA.AperFunction,OtherDrill,Pad Free-g (3mm,74mm)*%
%ADD76C,3.40000*%
%TA.AperFunction,OtherDrill,Pad Free-g (97mm,74mm)*%
%ADD77C,3.40000*%
%TA.AperFunction,OtherDrill,Pad Free-g (97mm,97mm)*%
%ADD78C,3.40000*%
%TA.AperFunction,OtherDrill,Pad Free-g (54mm,97mm)*%
%ADD79C,3.40000*%
%TA.AperFunction,OtherDrill,Pad Free-g (54mm,74mm)*%
%ADD80C,3.40000*%
%TA.AperFunction,ComponentDrill*%
%ADD81C,1.00000*%
%ADD82R,3.00000X1.90000*%
%ADD83C,1.38000*%
%ADD84C,0.80000*%
%ADD85C,1.10000*%
%TA.AperFunction,OtherDrill,Pad Free-1 (46mm,67mm)*%
%ADD86C,3.40000*%
%TA.AperFunction,OtherDrill,Pad Free-g (3mm,67mm)*%
%ADD87C,3.40000*%
%TA.AperFunction,OtherDrill,Pad Free-1 (3mm,3mm)*%
%ADD88C,3.40000*%
%TA.AperFunction,OtherDrill,Pad Free-1 (46mm,3mm)*%
%ADD89C,3.40000*%
%TA.AperFunction,ViaDrill,NotFilled*%
%ADD90C,0.50000*%
%TA.AperFunction,OtherDrill,Pad Free-1 (97mm,67mm)*%
%ADD91C,3.40000*%
%TA.AperFunction,OtherDrill,Pad Free-g (54mm,67mm)*%
%ADD92C,3.40000*%
%TA.AperFunction,OtherDrill,Pad Free-1 (54mm,3mm)*%
%ADD93C,3.40000*%
%TA.AperFunction,OtherDrill,Pad Free-1 (97mm,3mm)*%
%ADD94C,3.40000*%
D70*
X4500001Y8199998D02*
D03*
Y7999998D02*
D03*
Y9100001D02*
D03*
Y8900002D02*
D03*
X2600000Y8800002D02*
D03*
Y9300001D02*
D03*
X9600001Y8199998D02*
D03*
Y7999998D02*
D03*
Y9100001D02*
D03*
Y8900002D02*
D03*
X7700000Y8800002D02*
D03*
Y9300001D02*
D03*
X4635500Y2095500D02*
D03*
Y1895500D02*
D03*
Y2803500D02*
D03*
Y2603500D02*
D03*
X254002Y4064000D02*
D03*
Y4264000D02*
D03*
Y4880000D02*
D03*
Y5080000D02*
D03*
X457202Y2279599D02*
D03*
Y2079600D02*
D03*
Y1879600D02*
D03*
Y1679600D02*
D03*
X9735500Y2095500D02*
D03*
Y1895500D02*
D03*
Y2803500D02*
D03*
Y2603500D02*
D03*
X5354001Y4064000D02*
D03*
Y4264000D02*
D03*
Y4880000D02*
D03*
Y5080000D02*
D03*
X5557201Y2279599D02*
D03*
Y2079600D02*
D03*
Y1879600D02*
D03*
Y1679600D02*
D03*
D71*
X3352399Y7970001D02*
D03*
X3199999D02*
D03*
X3047599D02*
D03*
X8452399D02*
D03*
X8299999D02*
D03*
X8147599D02*
D03*
D72*
X3800003Y8270000D02*
D03*
Y7770001D02*
D03*
X3499998Y8900002D02*
D03*
Y9100001D02*
D03*
X4000002Y9200001D02*
D03*
Y8700002D02*
D03*
X8900003Y8270000D02*
D03*
Y7770001D02*
D03*
X8599998Y8900002D02*
D03*
Y9100001D02*
D03*
X9100002Y9200001D02*
D03*
Y8700002D02*
D03*
D73*
X4600001Y7399999D02*
D03*
D74*
Y9700000D02*
D03*
D75*
X299999D02*
D03*
D76*
Y7399999D02*
D03*
D77*
X9700001D02*
D03*
D78*
Y9700000D02*
D03*
D79*
X5399999D02*
D03*
D80*
Y7399999D02*
D03*
D81*
X1850000Y4980000D02*
D03*
Y5480000D02*
D03*
Y5230000D02*
D03*
X3300000Y4980000D02*
D03*
Y5480000D02*
D03*
X6950000Y4980000D02*
D03*
Y5480000D02*
D03*
Y5230000D02*
D03*
X8400000Y4980000D02*
D03*
Y5480000D02*
D03*
D82*
X2600000Y4700000D02*
D03*
Y5760000D02*
D03*
X7700000Y4700000D02*
D03*
Y5760000D02*
D03*
D83*
X2286000Y406400D02*
D03*
X2540000D02*
D03*
X2794000D02*
D03*
X7386000D02*
D03*
X7640000D02*
D03*
X7894000D02*
D03*
D84*
X1533501Y317500D02*
D03*
X1333502D02*
D03*
X3810002D02*
D03*
X3610002D02*
D03*
X6633501D02*
D03*
X6433501D02*
D03*
X8910001D02*
D03*
X8710002D02*
D03*
D85*
X254002Y3048000D02*
D03*
Y3302000D02*
D03*
Y3556000D02*
D03*
X5354001Y3048000D02*
D03*
Y3302000D02*
D03*
Y3556000D02*
D03*
D86*
X4600000Y6700000D02*
D03*
D87*
X300000D02*
D03*
D88*
X300001Y299999D02*
D03*
D89*
X4600002D02*
D03*
D90*
X3826871Y1917700D02*
D03*
X3302000Y1981200D02*
D03*
X2533484Y3175000D02*
D03*
X3378200Y3378200D02*
D03*
X2540002Y2921000D02*
D03*
X2895602Y965200D02*
D03*
X2663298D02*
D03*
X8926871Y1917700D02*
D03*
X8402000Y1981200D02*
D03*
X7633484Y3175000D02*
D03*
X8478200Y3378200D02*
D03*
X7640001Y2921000D02*
D03*
X7995601Y965200D02*
D03*
X7763298D02*
D03*
D91*
X9700000Y6700000D02*
D03*
D92*
X5400000D02*
D03*
D93*
X5400001Y299999D02*
D03*
D94*
X9700002D02*
D03*
%TF.MD5,d2d4cfb38b471ab860e24377be63988e*%
M02*
