%TF.GenerationSoftware,Altium Limited,Altium Designer,24.3.1 (35)*%
G04 Layer_Color=16711935*
%FSLAX45Y45*%
%MOMM*%
%TF.SameCoordinates,C0A1E697-D952-45A1-8973-6DB72EE3D4FA*%
%TF.FilePolarity,Negative*%
%TF.FileFunction,Soldermask,Bot*%
%TF.Part,CustomerPanel*%
G01*
G75*
%TA.AperFunction,ComponentPad*%
%ADD56R,1.40320X1.40320*%
%ADD57C,1.40320*%
%ADD58C,1.30320*%
%TA.AperFunction,ViaPad*%
%ADD59C,4.40320*%
%TA.AperFunction,ComponentPad*%
%ADD60R,1.30320X1.30320*%
%ADD61C,1.70320*%
%ADD62R,4.30320X3.20320*%
%ADD63C,2.27320*%
%ADD64R,2.27320X2.27320*%
%ADD65R,1.40320X1.40320*%
%ADD66C,1.85320*%
%ADD67R,1.85320X1.85320*%
%TA.AperFunction,ViaPad*%
%ADD68C,1.00320*%
D56*
X4500001Y8199998D02*
D03*
Y9100001D02*
D03*
X2600000Y9300001D02*
D03*
X9600001Y8199998D02*
D03*
Y9100001D02*
D03*
X7700000Y9300001D02*
D03*
X4635500Y1895500D02*
D03*
Y2603500D02*
D03*
X254002Y4264000D02*
D03*
Y5080000D02*
D03*
X457202Y2279599D02*
D03*
X9735500Y1895500D02*
D03*
Y2603500D02*
D03*
X5354001Y4264000D02*
D03*
Y5080000D02*
D03*
X5557201Y2279599D02*
D03*
D57*
X4500001Y7999998D02*
D03*
X3800003Y8270000D02*
D03*
Y7770001D02*
D03*
X4500001Y8900002D02*
D03*
X4000002Y9200001D02*
D03*
Y8700002D02*
D03*
X2600000Y8800002D02*
D03*
X9600001Y7999998D02*
D03*
X8900003Y8270000D02*
D03*
Y7770001D02*
D03*
X9600001Y8900002D02*
D03*
X9100002Y9200001D02*
D03*
Y8700002D02*
D03*
X7700000Y8800002D02*
D03*
X4635500Y2095500D02*
D03*
Y2803500D02*
D03*
X1533501Y317500D02*
D03*
X3810002D02*
D03*
X254002Y4064000D02*
D03*
Y4880000D02*
D03*
X457202Y2079600D02*
D03*
Y1879600D02*
D03*
Y1679600D02*
D03*
X9735500Y2095500D02*
D03*
Y2803500D02*
D03*
X6633501Y317500D02*
D03*
X8910001D02*
D03*
X5354001Y4064000D02*
D03*
Y4880000D02*
D03*
X5557201Y2079600D02*
D03*
Y1879600D02*
D03*
Y1679600D02*
D03*
D58*
X3352399Y7970001D02*
D03*
X3199999D02*
D03*
X3047599D02*
D03*
X3499998Y8900002D02*
D03*
X8452399Y7970001D02*
D03*
X8299999D02*
D03*
X8147599D02*
D03*
X8599998Y8900002D02*
D03*
D59*
X4600001Y7399999D02*
D03*
Y9700000D02*
D03*
X299999D02*
D03*
Y7399999D02*
D03*
X9700001D02*
D03*
Y9700000D02*
D03*
X5399999D02*
D03*
Y7399999D02*
D03*
X4600000Y6700000D02*
D03*
X300000D02*
D03*
X300001Y299999D02*
D03*
X4600002D02*
D03*
X9700000Y6700000D02*
D03*
X5400000D02*
D03*
X5400001Y299999D02*
D03*
X9700002D02*
D03*
D60*
X3499998Y9100001D02*
D03*
X8599998D02*
D03*
D61*
X1850000Y4980000D02*
D03*
Y5480000D02*
D03*
Y5230000D02*
D03*
X3300000Y4980000D02*
D03*
Y5480000D02*
D03*
X6950000Y4980000D02*
D03*
Y5480000D02*
D03*
Y5230000D02*
D03*
X8400000Y4980000D02*
D03*
Y5480000D02*
D03*
D62*
X2600000Y4700000D02*
D03*
Y5760000D02*
D03*
X7700000Y4700000D02*
D03*
Y5760000D02*
D03*
D63*
X2286000Y406400D02*
D03*
X2540000D02*
D03*
X7386000D02*
D03*
X7640000D02*
D03*
D64*
X2794000D02*
D03*
X7894000D02*
D03*
D65*
X1333502Y317500D02*
D03*
X3610002D02*
D03*
X6433501D02*
D03*
X8710002D02*
D03*
D66*
X254002Y3048000D02*
D03*
Y3302000D02*
D03*
X5354001Y3048000D02*
D03*
Y3302000D02*
D03*
D67*
X254002Y3556000D02*
D03*
X5354001D02*
D03*
D68*
X3826871Y1917700D02*
D03*
X3302000Y1981200D02*
D03*
X2533484Y3175000D02*
D03*
X3378200Y3378200D02*
D03*
X2540002Y2921000D02*
D03*
X2895602Y965200D02*
D03*
X2663298D02*
D03*
X8926871Y1917700D02*
D03*
X8402000Y1981200D02*
D03*
X7633484Y3175000D02*
D03*
X8478200Y3378200D02*
D03*
X7640001Y2921000D02*
D03*
X7995601Y965200D02*
D03*
X7763298D02*
D03*
%TF.MD5,a70ef06e18f992a7e350f799009ee8cd*%
M02*
