%TF.GenerationSoftware,Altium Limited,Altium Designer,24.3.1 (35)*%
G04 Layer_Physical_Order=2*
G04 Layer_Color=16711680*
%FSLAX45Y45*%
%MOMM*%
%TF.SameCoordinates,C0A1E697-D952-45A1-8973-6DB72EE3D4FA*%
%TF.FilePolarity,Positive*%
%TF.FileFunction,Copper,L2,Bot,Signal*%
%TF.Part,CustomerPanel*%
G01*
G75*
%TA.AperFunction,Conductor*%
%ADD27C,0.25400*%
%TA.AperFunction,ComponentPad*%
%ADD30R,1.20000X1.20000*%
%ADD31C,1.20000*%
%ADD32C,1.10000*%
%TA.AperFunction,ViaPad*%
%ADD33C,4.20000*%
%TA.AperFunction,ComponentPad*%
%ADD34R,1.10000X1.10000*%
%ADD35C,1.50000*%
%ADD36R,4.10000X3.00000*%
%ADD37C,2.07000*%
%ADD38R,2.07000X2.07000*%
%ADD39R,1.20000X1.20000*%
%ADD40C,1.65000*%
%ADD41R,1.65000X1.65000*%
%TA.AperFunction,ViaPad*%
%ADD42C,0.80000*%
G36*
X10000000Y7100000D02*
X5100000D01*
Y9300000D01*
Y9500000D01*
Y10000000D01*
X10000000D01*
Y7100000D01*
D02*
G37*
G36*
X4900000D02*
X0D01*
Y9300000D01*
Y9500000D01*
Y10000000D01*
X4900000D01*
Y7100000D01*
D02*
G37*
G36*
X10000000Y0D02*
X5100000D01*
Y7000000D01*
X10000000D01*
Y0D01*
D02*
G37*
G36*
X4900000D02*
X0D01*
Y7000000D01*
X4900000D01*
Y0D01*
D02*
G37*
%LPC*%
G36*
X9723186Y9935400D02*
X9676816D01*
X9631337Y9926353D01*
X9588497Y9908609D01*
X9549942Y9882847D01*
X9517154Y9850059D01*
X9491392Y9811504D01*
X9473648Y9768663D01*
X9464601Y9723185D01*
Y9676815D01*
X9473648Y9631336D01*
X9491392Y9588496D01*
X9517154Y9549941D01*
X9549942Y9517153D01*
X9588497Y9491391D01*
X9631337Y9473647D01*
X9676816Y9464600D01*
X9723186D01*
X9768664Y9473647D01*
X9811505Y9491391D01*
X9850060Y9517153D01*
X9882848Y9549941D01*
X9908610Y9588496D01*
X9926354Y9631336D01*
X9935401Y9676815D01*
Y9723185D01*
X9926354Y9768663D01*
X9908610Y9811504D01*
X9882848Y9850059D01*
X9850060Y9882847D01*
X9811505Y9908609D01*
X9768664Y9926353D01*
X9723186Y9935400D01*
D02*
G37*
G36*
X5423184D02*
X5376814D01*
X5331336Y9926353D01*
X5288496Y9908609D01*
X5249941Y9882847D01*
X5217152Y9850059D01*
X5191391Y9811504D01*
X5173646Y9768663D01*
X5164600Y9723185D01*
Y9676815D01*
X5173646Y9631336D01*
X5191391Y9588496D01*
X5217152Y9549941D01*
X5249941Y9517153D01*
X5288496Y9491391D01*
X5331336Y9473647D01*
X5376814Y9464600D01*
X5423184D01*
X5468663Y9473647D01*
X5511503Y9491391D01*
X5550058Y9517153D01*
X5582846Y9549941D01*
X5608608Y9588496D01*
X5626353Y9631336D01*
X5635399Y9676815D01*
Y9723185D01*
X5626353Y9768663D01*
X5608608Y9811504D01*
X5582846Y9850059D01*
X5550058Y9882847D01*
X5511503Y9908609D01*
X5468663Y9926353D01*
X5423184Y9935400D01*
D02*
G37*
G36*
X7785400Y9385401D02*
X7614600D01*
Y9214601D01*
X7785400D01*
Y9385401D01*
D02*
G37*
G36*
X9111245Y9285401D02*
X9088759D01*
X9067039Y9279581D01*
X9047565Y9268338D01*
X9031665Y9252438D01*
X9020422Y9232964D01*
X9014602Y9211244D01*
Y9188758D01*
X9020422Y9167038D01*
X9031665Y9147564D01*
X9047565Y9131664D01*
X9067039Y9120421D01*
X9088759Y9114601D01*
X9111245D01*
X9132965Y9120421D01*
X9152439Y9131664D01*
X9168339Y9147564D01*
X9179582Y9167038D01*
X9185402Y9188758D01*
Y9211244D01*
X9179582Y9232964D01*
X9168339Y9252438D01*
X9152439Y9268338D01*
X9132965Y9279581D01*
X9111245Y9285401D01*
D02*
G37*
G36*
X8680398Y9180401D02*
X8519598D01*
Y9019601D01*
X8680398D01*
Y9180401D01*
D02*
G37*
G36*
X9685401Y9185401D02*
X9514601D01*
Y9014601D01*
X9685401D01*
Y9185401D01*
D02*
G37*
G36*
X8610583Y8980401D02*
X8589413D01*
X8568965Y8974922D01*
X8550631Y8964337D01*
X8535662Y8949368D01*
X8525077Y8931035D01*
X8519598Y8910586D01*
Y8889417D01*
X8525077Y8868968D01*
X8535662Y8850635D01*
X8550631Y8835666D01*
X8568965Y8825081D01*
X8589413Y8819602D01*
X8610583D01*
X8631031Y8825081D01*
X8649365Y8835666D01*
X8664334Y8850635D01*
X8674919Y8868968D01*
X8680398Y8889417D01*
Y8910586D01*
X8674919Y8931035D01*
X8664334Y8949368D01*
X8649365Y8964337D01*
X8631031Y8974922D01*
X8610583Y8980401D01*
D02*
G37*
G36*
X9611244Y8985401D02*
X9588758D01*
X9567038Y8979581D01*
X9547564Y8968338D01*
X9531664Y8952438D01*
X9520421Y8932965D01*
X9514601Y8911245D01*
Y8888758D01*
X9520421Y8867038D01*
X9531664Y8847565D01*
X9547564Y8831665D01*
X9567038Y8820422D01*
X9588758Y8814602D01*
X9611244D01*
X9632964Y8820422D01*
X9652438Y8831665D01*
X9668338Y8847565D01*
X9679581Y8867038D01*
X9685401Y8888758D01*
Y8911245D01*
X9679581Y8932965D01*
X9668338Y8952438D01*
X9652438Y8968338D01*
X9632964Y8979581D01*
X9611244Y8985401D01*
D02*
G37*
G36*
X7711243Y8885402D02*
X7688757D01*
X7667037Y8879582D01*
X7647563Y8868339D01*
X7631663Y8852438D01*
X7620420Y8832965D01*
X7614600Y8811245D01*
Y8788759D01*
X7620420Y8767039D01*
X7631663Y8747565D01*
X7647563Y8731665D01*
X7667037Y8720422D01*
X7688757Y8714602D01*
X7711243D01*
X7732963Y8720422D01*
X7752437Y8731665D01*
X7768337Y8747565D01*
X7779580Y8767039D01*
X7785400Y8788759D01*
Y8811245D01*
X7779580Y8832965D01*
X7768337Y8852438D01*
X7752437Y8868339D01*
X7732963Y8879582D01*
X7711243Y8885402D01*
D02*
G37*
G36*
X9111245Y8785402D02*
X9088759D01*
X9067039Y8779582D01*
X9047565Y8768339D01*
X9031665Y8752439D01*
X9020422Y8732965D01*
X9014602Y8711245D01*
Y8688759D01*
X9020422Y8667039D01*
X9031665Y8647565D01*
X9047565Y8631665D01*
X9067039Y8620422D01*
X9088759Y8614602D01*
X9111245D01*
X9132965Y8620422D01*
X9152439Y8631665D01*
X9168339Y8647565D01*
X9179582Y8667039D01*
X9185402Y8688759D01*
Y8711245D01*
X9179582Y8732965D01*
X9168339Y8752439D01*
X9152439Y8768339D01*
X9132965Y8779582D01*
X9111245Y8785402D01*
D02*
G37*
G36*
X8911246Y8355400D02*
X8888759D01*
X8867039Y8349580D01*
X8847566Y8338337D01*
X8831666Y8322437D01*
X8820423Y8302963D01*
X8814603Y8281243D01*
Y8258757D01*
X8820423Y8237037D01*
X8831666Y8217563D01*
X8847566Y8201663D01*
X8867039Y8190420D01*
X8888759Y8184600D01*
X8911246D01*
X8932966Y8190420D01*
X8952439Y8201663D01*
X8968339Y8217563D01*
X8979582Y8237037D01*
X8985402Y8258757D01*
Y8281243D01*
X8979582Y8302963D01*
X8968339Y8322437D01*
X8952439Y8338337D01*
X8932966Y8349580D01*
X8911246Y8355400D01*
D02*
G37*
G36*
X9685401Y8285398D02*
X9514601D01*
Y8114598D01*
X9685401D01*
Y8285398D01*
D02*
G37*
G36*
X8462984Y8050401D02*
X8441814D01*
X8421365Y8044921D01*
X8403032Y8034337D01*
X8388063Y8019368D01*
X8383531Y8011518D01*
X8368866D01*
X8364335Y8019368D01*
X8349365Y8034337D01*
X8331032Y8044921D01*
X8310584Y8050401D01*
X8289414D01*
X8268965Y8044921D01*
X8250632Y8034337D01*
X8235663Y8019368D01*
X8231131Y8011518D01*
X8216466D01*
X8211935Y8019368D01*
X8196965Y8034337D01*
X8178632Y8044921D01*
X8158184Y8050401D01*
X8137014D01*
X8116565Y8044921D01*
X8098232Y8034337D01*
X8083263Y8019368D01*
X8072678Y8001034D01*
X8067199Y7980586D01*
Y7959416D01*
X8072678Y7938968D01*
X8083263Y7920634D01*
X8098232Y7905665D01*
X8116565Y7895080D01*
X8137014Y7889601D01*
X8158184D01*
X8178632Y7895080D01*
X8196965Y7905665D01*
X8211935Y7920634D01*
X8216466Y7928483D01*
X8231131D01*
X8235663Y7920634D01*
X8250632Y7905665D01*
X8268965Y7895080D01*
X8289414Y7889601D01*
X8310584D01*
X8331032Y7895080D01*
X8349365Y7905665D01*
X8364335Y7920634D01*
X8368866Y7928483D01*
X8383531D01*
X8388063Y7920634D01*
X8403032Y7905665D01*
X8421365Y7895080D01*
X8441814Y7889601D01*
X8462984D01*
X8483432Y7895080D01*
X8501765Y7905665D01*
X8516735Y7920634D01*
X8527319Y7938968D01*
X8532799Y7959416D01*
Y7980586D01*
X8527319Y8001034D01*
X8516735Y8019368D01*
X8501765Y8034337D01*
X8483432Y8044921D01*
X8462984Y8050401D01*
D02*
G37*
G36*
X9611244Y8085398D02*
X9588758D01*
X9567038Y8079578D01*
X9547564Y8068335D01*
X9531664Y8052435D01*
X9520421Y8032961D01*
X9514601Y8011241D01*
Y7988755D01*
X9520421Y7967035D01*
X9531664Y7947561D01*
X9547564Y7931661D01*
X9567038Y7920418D01*
X9588758Y7914598D01*
X9611244D01*
X9632964Y7920418D01*
X9652438Y7931661D01*
X9668338Y7947561D01*
X9679581Y7967035D01*
X9685401Y7988755D01*
Y8011241D01*
X9679581Y8032961D01*
X9668338Y8052435D01*
X9652438Y8068335D01*
X9632964Y8079578D01*
X9611244Y8085398D01*
D02*
G37*
G36*
X8911246Y7855401D02*
X8888759D01*
X8867039Y7849581D01*
X8847566Y7838338D01*
X8831666Y7822438D01*
X8820423Y7802964D01*
X8814603Y7781244D01*
Y7758758D01*
X8820423Y7737038D01*
X8831666Y7717564D01*
X8847566Y7701664D01*
X8867039Y7690421D01*
X8888759Y7684601D01*
X8911246D01*
X8932966Y7690421D01*
X8952439Y7701664D01*
X8968339Y7717564D01*
X8979582Y7737038D01*
X8985402Y7758758D01*
Y7781244D01*
X8979582Y7802964D01*
X8968339Y7822438D01*
X8952439Y7838338D01*
X8932966Y7849581D01*
X8911246Y7855401D01*
D02*
G37*
G36*
X9723186Y7635399D02*
X9676816D01*
X9631337Y7626353D01*
X9588497Y7608608D01*
X9549942Y7582846D01*
X9517154Y7550058D01*
X9491392Y7511503D01*
X9473648Y7468663D01*
X9464601Y7423184D01*
Y7376815D01*
X9473648Y7331336D01*
X9491392Y7288496D01*
X9517154Y7249941D01*
X9549942Y7217152D01*
X9588497Y7191391D01*
X9631337Y7173646D01*
X9676816Y7164600D01*
X9723186D01*
X9768664Y7173646D01*
X9811505Y7191391D01*
X9850060Y7217152D01*
X9882848Y7249941D01*
X9908610Y7288496D01*
X9926354Y7331336D01*
X9935401Y7376815D01*
Y7423184D01*
X9926354Y7468663D01*
X9908610Y7511503D01*
X9882848Y7550058D01*
X9850060Y7582846D01*
X9811505Y7608608D01*
X9768664Y7626353D01*
X9723186Y7635399D01*
D02*
G37*
G36*
X5423184D02*
X5376814D01*
X5331336Y7626353D01*
X5288496Y7608608D01*
X5249941Y7582846D01*
X5217152Y7550058D01*
X5191391Y7511503D01*
X5173646Y7468663D01*
X5164600Y7423184D01*
Y7376815D01*
X5173646Y7331336D01*
X5191391Y7288496D01*
X5217152Y7249941D01*
X5249941Y7217152D01*
X5288496Y7191391D01*
X5331336Y7173646D01*
X5376814Y7164600D01*
X5423184D01*
X5468663Y7173646D01*
X5511503Y7191391D01*
X5550058Y7217152D01*
X5582846Y7249941D01*
X5608608Y7288496D01*
X5626353Y7331336D01*
X5635399Y7376815D01*
Y7423184D01*
X5626353Y7468663D01*
X5608608Y7511503D01*
X5582846Y7550058D01*
X5550058Y7582846D01*
X5511503Y7608608D01*
X5468663Y7626353D01*
X5423184Y7635399D01*
D02*
G37*
G36*
X4623186Y9935400D02*
X4576816D01*
X4531337Y9926353D01*
X4488497Y9908609D01*
X4449942Y9882847D01*
X4417154Y9850059D01*
X4391392Y9811504D01*
X4373648Y9768663D01*
X4364601Y9723185D01*
Y9676815D01*
X4373648Y9631336D01*
X4391392Y9588496D01*
X4417154Y9549941D01*
X4449942Y9517153D01*
X4488497Y9491391D01*
X4531337Y9473647D01*
X4576816Y9464600D01*
X4623186D01*
X4668665Y9473647D01*
X4711505Y9491391D01*
X4750060Y9517153D01*
X4782848Y9549941D01*
X4808610Y9588496D01*
X4826354Y9631336D01*
X4835401Y9676815D01*
Y9723185D01*
X4826354Y9768663D01*
X4808610Y9811504D01*
X4782848Y9850059D01*
X4750060Y9882847D01*
X4711505Y9908609D01*
X4668665Y9926353D01*
X4623186Y9935400D01*
D02*
G37*
G36*
X323184D02*
X276815D01*
X231336Y9926353D01*
X188496Y9908609D01*
X149941Y9882847D01*
X117152Y9850059D01*
X91391Y9811504D01*
X73646Y9768663D01*
X64600Y9723185D01*
Y9676815D01*
X73646Y9631336D01*
X91391Y9588496D01*
X117152Y9549941D01*
X149941Y9517153D01*
X188496Y9491391D01*
X231336Y9473647D01*
X276815Y9464600D01*
X323184D01*
X368663Y9473647D01*
X411503Y9491391D01*
X450058Y9517153D01*
X482846Y9549941D01*
X508608Y9588496D01*
X526353Y9631336D01*
X535399Y9676815D01*
Y9723185D01*
X526353Y9768663D01*
X508608Y9811504D01*
X482846Y9850059D01*
X450058Y9882847D01*
X411503Y9908609D01*
X368663Y9926353D01*
X323184Y9935400D01*
D02*
G37*
G36*
X2685400Y9385401D02*
X2514600D01*
Y9214601D01*
X2685400D01*
Y9385401D01*
D02*
G37*
G36*
X4011245Y9285401D02*
X3988759D01*
X3967039Y9279581D01*
X3947565Y9268338D01*
X3931665Y9252438D01*
X3920422Y9232964D01*
X3914602Y9211244D01*
Y9188758D01*
X3920422Y9167038D01*
X3931665Y9147564D01*
X3947565Y9131664D01*
X3967039Y9120421D01*
X3988759Y9114601D01*
X4011245D01*
X4032965Y9120421D01*
X4052439Y9131664D01*
X4068339Y9147564D01*
X4079582Y9167038D01*
X4085402Y9188758D01*
Y9211244D01*
X4079582Y9232964D01*
X4068339Y9252438D01*
X4052439Y9268338D01*
X4032965Y9279581D01*
X4011245Y9285401D01*
D02*
G37*
G36*
X3580398Y9180401D02*
X3419598D01*
Y9019601D01*
X3580398D01*
Y9180401D01*
D02*
G37*
G36*
X4585401Y9185401D02*
X4414601D01*
Y9014601D01*
X4585401D01*
Y9185401D01*
D02*
G37*
G36*
X3510583Y8980401D02*
X3489413D01*
X3468965Y8974922D01*
X3450631Y8964337D01*
X3435662Y8949368D01*
X3425077Y8931035D01*
X3419598Y8910586D01*
Y8889417D01*
X3425077Y8868968D01*
X3435662Y8850635D01*
X3450631Y8835666D01*
X3468965Y8825081D01*
X3489413Y8819602D01*
X3510583D01*
X3531031Y8825081D01*
X3549365Y8835666D01*
X3564334Y8850635D01*
X3574919Y8868968D01*
X3580398Y8889417D01*
Y8910586D01*
X3574919Y8931035D01*
X3564334Y8949368D01*
X3549365Y8964337D01*
X3531031Y8974922D01*
X3510583Y8980401D01*
D02*
G37*
G36*
X4511244Y8985401D02*
X4488758D01*
X4467038Y8979581D01*
X4447564Y8968338D01*
X4431664Y8952438D01*
X4420421Y8932965D01*
X4414601Y8911245D01*
Y8888758D01*
X4420421Y8867038D01*
X4431664Y8847565D01*
X4447564Y8831665D01*
X4467038Y8820422D01*
X4488758Y8814602D01*
X4511244D01*
X4532964Y8820422D01*
X4552438Y8831665D01*
X4568338Y8847565D01*
X4579581Y8867038D01*
X4585401Y8888758D01*
Y8911245D01*
X4579581Y8932965D01*
X4568338Y8952438D01*
X4552438Y8968338D01*
X4532964Y8979581D01*
X4511244Y8985401D01*
D02*
G37*
G36*
X2611243Y8885402D02*
X2588757D01*
X2567037Y8879582D01*
X2547563Y8868339D01*
X2531663Y8852438D01*
X2520420Y8832965D01*
X2514600Y8811245D01*
Y8788759D01*
X2520420Y8767039D01*
X2531663Y8747565D01*
X2547563Y8731665D01*
X2567037Y8720422D01*
X2588757Y8714602D01*
X2611243D01*
X2632963Y8720422D01*
X2652437Y8731665D01*
X2668337Y8747565D01*
X2679580Y8767039D01*
X2685400Y8788759D01*
Y8811245D01*
X2679580Y8832965D01*
X2668337Y8852438D01*
X2652437Y8868339D01*
X2632963Y8879582D01*
X2611243Y8885402D01*
D02*
G37*
G36*
X4011245Y8785402D02*
X3988759D01*
X3967039Y8779582D01*
X3947565Y8768339D01*
X3931665Y8752439D01*
X3920422Y8732965D01*
X3914602Y8711245D01*
Y8688759D01*
X3920422Y8667039D01*
X3931665Y8647565D01*
X3947565Y8631665D01*
X3967039Y8620422D01*
X3988759Y8614602D01*
X4011245D01*
X4032965Y8620422D01*
X4052439Y8631665D01*
X4068339Y8647565D01*
X4079582Y8667039D01*
X4085402Y8688759D01*
Y8711245D01*
X4079582Y8732965D01*
X4068339Y8752439D01*
X4052439Y8768339D01*
X4032965Y8779582D01*
X4011245Y8785402D01*
D02*
G37*
G36*
X3811246Y8355400D02*
X3788760D01*
X3767039Y8349580D01*
X3747566Y8338337D01*
X3731666Y8322437D01*
X3720423Y8302963D01*
X3714603Y8281243D01*
Y8258757D01*
X3720423Y8237037D01*
X3731666Y8217563D01*
X3747566Y8201663D01*
X3767039Y8190420D01*
X3788760Y8184600D01*
X3811246D01*
X3832966Y8190420D01*
X3852439Y8201663D01*
X3868339Y8217563D01*
X3879583Y8237037D01*
X3885402Y8258757D01*
Y8281243D01*
X3879583Y8302963D01*
X3868339Y8322437D01*
X3852439Y8338337D01*
X3832966Y8349580D01*
X3811246Y8355400D01*
D02*
G37*
G36*
X4585401Y8285398D02*
X4414601D01*
Y8114598D01*
X4585401D01*
Y8285398D01*
D02*
G37*
G36*
X3362984Y8050401D02*
X3341814D01*
X3321365Y8044921D01*
X3303032Y8034337D01*
X3288063Y8019368D01*
X3283531Y8011518D01*
X3268866D01*
X3264335Y8019368D01*
X3249365Y8034337D01*
X3231032Y8044921D01*
X3210584Y8050401D01*
X3189414D01*
X3168965Y8044921D01*
X3150632Y8034337D01*
X3135663Y8019368D01*
X3131131Y8011518D01*
X3116466D01*
X3111935Y8019368D01*
X3096965Y8034337D01*
X3078632Y8044921D01*
X3058184Y8050401D01*
X3037014D01*
X3016565Y8044921D01*
X2998232Y8034337D01*
X2983263Y8019368D01*
X2972678Y8001034D01*
X2967199Y7980586D01*
Y7959416D01*
X2972678Y7938968D01*
X2983263Y7920634D01*
X2998232Y7905665D01*
X3016565Y7895080D01*
X3037014Y7889601D01*
X3058184D01*
X3078632Y7895080D01*
X3096965Y7905665D01*
X3111935Y7920634D01*
X3116466Y7928483D01*
X3131131D01*
X3135663Y7920634D01*
X3150632Y7905665D01*
X3168965Y7895080D01*
X3189414Y7889601D01*
X3210584D01*
X3231032Y7895080D01*
X3249365Y7905665D01*
X3264335Y7920634D01*
X3268866Y7928483D01*
X3283531D01*
X3288063Y7920634D01*
X3303032Y7905665D01*
X3321365Y7895080D01*
X3341814Y7889601D01*
X3362984D01*
X3383432Y7895080D01*
X3401765Y7905665D01*
X3416735Y7920634D01*
X3427319Y7938968D01*
X3432799Y7959416D01*
Y7980586D01*
X3427319Y8001034D01*
X3416735Y8019368D01*
X3401765Y8034337D01*
X3383432Y8044921D01*
X3362984Y8050401D01*
D02*
G37*
G36*
X4511244Y8085398D02*
X4488758D01*
X4467038Y8079578D01*
X4447564Y8068335D01*
X4431664Y8052435D01*
X4420421Y8032961D01*
X4414601Y8011241D01*
Y7988755D01*
X4420421Y7967035D01*
X4431664Y7947561D01*
X4447564Y7931661D01*
X4467038Y7920418D01*
X4488758Y7914598D01*
X4511244D01*
X4532964Y7920418D01*
X4552438Y7931661D01*
X4568338Y7947561D01*
X4579581Y7967035D01*
X4585401Y7988755D01*
Y8011241D01*
X4579581Y8032961D01*
X4568338Y8052435D01*
X4552438Y8068335D01*
X4532964Y8079578D01*
X4511244Y8085398D01*
D02*
G37*
G36*
X3811246Y7855401D02*
X3788760D01*
X3767039Y7849581D01*
X3747566Y7838338D01*
X3731666Y7822438D01*
X3720423Y7802964D01*
X3714603Y7781244D01*
Y7758758D01*
X3720423Y7737038D01*
X3731666Y7717564D01*
X3747566Y7701664D01*
X3767039Y7690421D01*
X3788760Y7684601D01*
X3811246D01*
X3832966Y7690421D01*
X3852439Y7701664D01*
X3868339Y7717564D01*
X3879583Y7737038D01*
X3885402Y7758758D01*
Y7781244D01*
X3879583Y7802964D01*
X3868339Y7822438D01*
X3852439Y7838338D01*
X3832966Y7849581D01*
X3811246Y7855401D01*
D02*
G37*
G36*
X4623186Y7635399D02*
X4576816D01*
X4531337Y7626353D01*
X4488497Y7608608D01*
X4449942Y7582846D01*
X4417154Y7550058D01*
X4391392Y7511503D01*
X4373648Y7468663D01*
X4364601Y7423184D01*
Y7376815D01*
X4373648Y7331336D01*
X4391392Y7288496D01*
X4417154Y7249941D01*
X4449942Y7217152D01*
X4488497Y7191391D01*
X4531337Y7173646D01*
X4576816Y7164600D01*
X4623186D01*
X4668665Y7173646D01*
X4711505Y7191391D01*
X4750060Y7217152D01*
X4782848Y7249941D01*
X4808610Y7288496D01*
X4826354Y7331336D01*
X4835401Y7376815D01*
Y7423184D01*
X4826354Y7468663D01*
X4808610Y7511503D01*
X4782848Y7550058D01*
X4750060Y7582846D01*
X4711505Y7608608D01*
X4668665Y7626353D01*
X4623186Y7635399D01*
D02*
G37*
G36*
X323184D02*
X276815D01*
X231336Y7626353D01*
X188496Y7608608D01*
X149941Y7582846D01*
X117152Y7550058D01*
X91391Y7511503D01*
X73646Y7468663D01*
X64600Y7423184D01*
Y7376815D01*
X73646Y7331336D01*
X91391Y7288496D01*
X117152Y7249941D01*
X149941Y7217152D01*
X188496Y7191391D01*
X231336Y7173646D01*
X276815Y7164600D01*
X323184D01*
X368663Y7173646D01*
X411503Y7191391D01*
X450058Y7217152D01*
X482846Y7249941D01*
X508608Y7288496D01*
X526353Y7331336D01*
X535399Y7376815D01*
Y7423184D01*
X526353Y7468663D01*
X508608Y7511503D01*
X482846Y7550058D01*
X450058Y7582846D01*
X411503Y7608608D01*
X368663Y7626353D01*
X323184Y7635399D01*
D02*
G37*
G36*
X9723185Y6935400D02*
X9712700D01*
Y6712700D01*
X9935400D01*
Y6723185D01*
X9926353Y6768664D01*
X9908609Y6811504D01*
X9882847Y6850059D01*
X9850059Y6882847D01*
X9811504Y6908609D01*
X9768663Y6926353D01*
X9723185Y6935400D01*
D02*
G37*
G36*
X9687300D02*
X9676815D01*
X9631336Y6926353D01*
X9588496Y6908609D01*
X9549941Y6882847D01*
X9517153Y6850059D01*
X9491391Y6811504D01*
X9473647Y6768664D01*
X9464600Y6723185D01*
Y6712700D01*
X9687300D01*
Y6935400D01*
D02*
G37*
G36*
X5423185D02*
X5412700D01*
Y6712700D01*
X5635400D01*
Y6723185D01*
X5626353Y6768664D01*
X5608609Y6811504D01*
X5582847Y6850059D01*
X5550058Y6882847D01*
X5511504Y6908609D01*
X5468663Y6926353D01*
X5423185Y6935400D01*
D02*
G37*
G36*
X5387300D02*
X5376815D01*
X5331336Y6926353D01*
X5288496Y6908609D01*
X5249941Y6882847D01*
X5217153Y6850059D01*
X5191391Y6811504D01*
X5173646Y6768664D01*
X5164600Y6723185D01*
Y6712700D01*
X5387300D01*
Y6935400D01*
D02*
G37*
G36*
X9935400Y6687300D02*
X9712700D01*
Y6464600D01*
X9723185D01*
X9768663Y6473647D01*
X9811504Y6491391D01*
X9850059Y6517153D01*
X9882847Y6549941D01*
X9908609Y6588496D01*
X9926353Y6631336D01*
X9935400Y6676815D01*
Y6687300D01*
D02*
G37*
G36*
X9687300D02*
X9464600D01*
Y6676815D01*
X9473647Y6631336D01*
X9491391Y6588496D01*
X9517153Y6549941D01*
X9549941Y6517153D01*
X9588496Y6491391D01*
X9631336Y6473647D01*
X9676815Y6464600D01*
X9687300D01*
Y6687300D01*
D02*
G37*
G36*
X5635400D02*
X5412700D01*
Y6464600D01*
X5423185D01*
X5468663Y6473647D01*
X5511504Y6491391D01*
X5550058Y6517153D01*
X5582847Y6549941D01*
X5608609Y6588496D01*
X5626353Y6631336D01*
X5635400Y6676815D01*
Y6687300D01*
D02*
G37*
G36*
X5387300D02*
X5164600D01*
Y6676815D01*
X5173646Y6631336D01*
X5191391Y6588496D01*
X5217153Y6549941D01*
X5249941Y6517153D01*
X5288496Y6491391D01*
X5331336Y6473647D01*
X5376815Y6464600D01*
X5387300D01*
Y6687300D01*
D02*
G37*
G36*
X7930400Y5935400D02*
X7712699D01*
Y5772699D01*
X7930400D01*
Y5935400D01*
D02*
G37*
G36*
X7687299D02*
X7469600D01*
Y5772699D01*
X7687299D01*
Y5935400D01*
D02*
G37*
G36*
X7930400Y5747299D02*
X7712699D01*
Y5584600D01*
X7930400D01*
Y5747299D01*
D02*
G37*
G36*
X7687299D02*
X7469600D01*
Y5584600D01*
X7687299D01*
Y5747299D01*
D02*
G37*
G36*
X8413218Y5580400D02*
X8412700D01*
Y5492700D01*
X8500400D01*
Y5493218D01*
X8493558Y5518753D01*
X8480340Y5541647D01*
X8461647Y5560340D01*
X8438753Y5573558D01*
X8413218Y5580400D01*
D02*
G37*
G36*
X8387300D02*
X8386782D01*
X8361247Y5573558D01*
X8338353Y5560340D01*
X8319660Y5541647D01*
X8306442Y5518753D01*
X8299600Y5493218D01*
Y5492700D01*
X8387300D01*
Y5580400D01*
D02*
G37*
G36*
X6961546Y5567700D02*
X6938454D01*
X6916149Y5561723D01*
X6896151Y5550177D01*
X6879823Y5533849D01*
X6868277Y5513851D01*
X6862300Y5491546D01*
Y5468454D01*
X6868277Y5446149D01*
X6879823Y5426151D01*
X6896151Y5409823D01*
X6916149Y5398277D01*
X6938454Y5392300D01*
X6961546D01*
X6983851Y5398277D01*
X7003849Y5409823D01*
X7020177Y5426151D01*
X7031723Y5446149D01*
X7037700Y5468454D01*
Y5491546D01*
X7031723Y5513851D01*
X7020177Y5533849D01*
X7003849Y5550177D01*
X6983851Y5561723D01*
X6961546Y5567700D01*
D02*
G37*
G36*
X8500400Y5467300D02*
X8412700D01*
Y5379600D01*
X8413218D01*
X8438753Y5386442D01*
X8461647Y5399660D01*
X8480340Y5418353D01*
X8493558Y5441247D01*
X8500400Y5466782D01*
Y5467300D01*
D02*
G37*
G36*
X8387300D02*
X8299600D01*
Y5466782D01*
X8306442Y5441247D01*
X8319660Y5418353D01*
X8338353Y5399660D01*
X8361247Y5386442D01*
X8386782Y5379600D01*
X8387300D01*
Y5467300D01*
D02*
G37*
G36*
X6963218Y5330400D02*
X6962701D01*
Y5242700D01*
X7050400D01*
Y5243218D01*
X7043558Y5268753D01*
X7030340Y5291647D01*
X7011647Y5310340D01*
X6988753Y5323558D01*
X6963218Y5330400D01*
D02*
G37*
G36*
X6937301D02*
X6936782D01*
X6911247Y5323558D01*
X6888353Y5310340D01*
X6869660Y5291647D01*
X6856442Y5268753D01*
X6849600Y5243218D01*
Y5242700D01*
X6937301D01*
Y5330400D01*
D02*
G37*
G36*
X7050400Y5217300D02*
X6962701D01*
Y5129600D01*
X6963218D01*
X6988753Y5136442D01*
X7011647Y5149660D01*
X7030340Y5168353D01*
X7043558Y5191247D01*
X7050400Y5216782D01*
Y5217300D01*
D02*
G37*
G36*
X6937301D02*
X6849600D01*
Y5216782D01*
X6856442Y5191247D01*
X6869660Y5168353D01*
X6888353Y5149660D01*
X6911247Y5136442D01*
X6936782Y5129600D01*
X6937301D01*
Y5217300D01*
D02*
G37*
G36*
X5426701Y5152700D02*
X5281302D01*
Y5007300D01*
X5426701D01*
Y5152700D01*
D02*
G37*
G36*
X5366701Y4965010D02*
Y4892700D01*
X5439011D01*
X5433581Y4912964D01*
X5422338Y4932437D01*
X5406438Y4948337D01*
X5386965Y4959580D01*
X5366701Y4965010D01*
D02*
G37*
G36*
X5341301D02*
X5321038Y4959580D01*
X5301565Y4948337D01*
X5285665Y4932437D01*
X5274422Y4912964D01*
X5268992Y4892700D01*
X5341301D01*
Y4965010D01*
D02*
G37*
G36*
X8411546Y5067700D02*
X8388454D01*
X8366149Y5061723D01*
X8346151Y5050177D01*
X8329823Y5033849D01*
X8318276Y5013851D01*
X8312300Y4991546D01*
Y4968454D01*
X8318276Y4946149D01*
X8329823Y4926151D01*
X8346151Y4909823D01*
X8366149Y4898277D01*
X8388454Y4892300D01*
X8411546D01*
X8433851Y4898277D01*
X8453849Y4909823D01*
X8470177Y4926151D01*
X8481723Y4946149D01*
X8487700Y4968454D01*
Y4991546D01*
X8481723Y5013851D01*
X8470177Y5033849D01*
X8453849Y5050177D01*
X8433851Y5061723D01*
X8411546Y5067700D01*
D02*
G37*
G36*
X6961546D02*
X6938454D01*
X6916149Y5061723D01*
X6896151Y5050177D01*
X6879823Y5033849D01*
X6868277Y5013851D01*
X6862300Y4991546D01*
Y4968454D01*
X6868277Y4946149D01*
X6879823Y4926151D01*
X6896151Y4909823D01*
X6916149Y4898277D01*
X6938454Y4892300D01*
X6961546D01*
X6983851Y4898277D01*
X7003849Y4909823D01*
X7020177Y4926151D01*
X7031723Y4946149D01*
X7037700Y4968454D01*
Y4991546D01*
X7031723Y5013851D01*
X7020177Y5033849D01*
X7003849Y5050177D01*
X6983851Y5061723D01*
X6961546Y5067700D01*
D02*
G37*
G36*
X5439011Y4867300D02*
X5366701D01*
Y4794991D01*
X5386965Y4800420D01*
X5406438Y4811663D01*
X5422338Y4827564D01*
X5433581Y4847037D01*
X5439011Y4867300D01*
D02*
G37*
G36*
X5341301D02*
X5268992D01*
X5274422Y4847037D01*
X5285665Y4827564D01*
X5301565Y4811663D01*
X5321038Y4800420D01*
X5341301Y4794991D01*
Y4867300D01*
D02*
G37*
G36*
X7930400Y4875400D02*
X7712699D01*
Y4712699D01*
X7930400D01*
Y4875400D01*
D02*
G37*
G36*
X7687299D02*
X7469600D01*
Y4712699D01*
X7687299D01*
Y4875400D01*
D02*
G37*
G36*
X7930400Y4687299D02*
X7712699D01*
Y4524600D01*
X7930400D01*
Y4687299D01*
D02*
G37*
G36*
X7687299D02*
X7469600D01*
Y4524600D01*
X7687299D01*
Y4687299D01*
D02*
G37*
G36*
X5426701Y4336699D02*
X5281302D01*
Y4191300D01*
X5426701D01*
Y4336699D01*
D02*
G37*
G36*
X5366701Y4149009D02*
Y4076700D01*
X5439011D01*
X5433581Y4096963D01*
X5422338Y4116437D01*
X5406438Y4132337D01*
X5386965Y4143580D01*
X5366701Y4149009D01*
D02*
G37*
G36*
X5341301D02*
X5321038Y4143580D01*
X5301565Y4132337D01*
X5285665Y4116437D01*
X5274422Y4096963D01*
X5268992Y4076700D01*
X5341301D01*
Y4149009D01*
D02*
G37*
G36*
X5439011Y4051300D02*
X5366701D01*
Y3978991D01*
X5386965Y3984420D01*
X5406438Y3995663D01*
X5422338Y4011563D01*
X5433581Y4031037D01*
X5439011Y4051300D01*
D02*
G37*
G36*
X5341301D02*
X5268992D01*
X5274422Y4031037D01*
X5285665Y4011563D01*
X5301565Y3995663D01*
X5321038Y3984420D01*
X5341301Y3978991D01*
Y4051300D01*
D02*
G37*
G36*
X5449201Y3651200D02*
X5258802D01*
Y3460800D01*
X5449201D01*
Y3651200D01*
D02*
G37*
G36*
X8490900Y3442504D02*
Y3390900D01*
X8542504D01*
X8539143Y3403444D01*
X8530533Y3418357D01*
X8518357Y3430533D01*
X8503443Y3439143D01*
X8490900Y3442504D01*
D02*
G37*
G36*
X8465500D02*
X8452956Y3439143D01*
X8438043Y3430533D01*
X8425867Y3418357D01*
X8417257Y3403444D01*
X8413896Y3390900D01*
X8465500D01*
Y3442504D01*
D02*
G37*
G36*
X8542504Y3365500D02*
X8490900D01*
Y3313896D01*
X8503443Y3317257D01*
X8518357Y3325867D01*
X8530533Y3338043D01*
X8539143Y3352956D01*
X8542504Y3365500D01*
D02*
G37*
G36*
X8465500D02*
X8413896D01*
X8417257Y3352956D01*
X8425867Y3338043D01*
X8438043Y3325867D01*
X8452956Y3317257D01*
X8465500Y3313896D01*
Y3365500D01*
D02*
G37*
G36*
X5366535Y3397200D02*
X5341468D01*
X5317256Y3390712D01*
X5295547Y3378179D01*
X5277823Y3360454D01*
X5265289Y3338746D01*
X5258802Y3314533D01*
Y3289467D01*
X5265289Y3265254D01*
X5277823Y3243546D01*
X5295547Y3225821D01*
X5317256Y3213288D01*
X5341468Y3206800D01*
X5366535D01*
X5390747Y3213288D01*
X5412456Y3225821D01*
X5430180Y3243546D01*
X5442714Y3265254D01*
X5449201Y3289467D01*
Y3314533D01*
X5442714Y3338746D01*
X5430180Y3360454D01*
X5412456Y3378179D01*
X5390747Y3390712D01*
X5366535Y3397200D01*
D02*
G37*
G36*
X5368207Y3155900D02*
X5366701D01*
Y3060700D01*
X5461901D01*
Y3062205D01*
X5454548Y3089648D01*
X5440343Y3114252D01*
X5420254Y3134341D01*
X5395649Y3148547D01*
X5368207Y3155900D01*
D02*
G37*
G36*
X5341301D02*
X5339796D01*
X5312354Y3148547D01*
X5287749Y3134341D01*
X5267660Y3114252D01*
X5253455Y3089648D01*
X5246102Y3062205D01*
Y3060700D01*
X5341301D01*
Y3155900D01*
D02*
G37*
G36*
X5461901Y3035300D02*
X5366701D01*
Y2940100D01*
X5368207D01*
X5395649Y2947453D01*
X5420254Y2961659D01*
X5440343Y2981748D01*
X5454548Y3006352D01*
X5461901Y3033795D01*
Y3035300D01*
D02*
G37*
G36*
X5341301D02*
X5246102D01*
Y3033795D01*
X5253455Y3006352D01*
X5267660Y2981748D01*
X5287749Y2961659D01*
X5312354Y2947453D01*
X5339796Y2940100D01*
X5341301D01*
Y3035300D01*
D02*
G37*
G36*
X7652701Y2985304D02*
Y2933700D01*
X7704305D01*
X7700944Y2946244D01*
X7692334Y2961157D01*
X7680158Y2973333D01*
X7665245Y2981943D01*
X7652701Y2985304D01*
D02*
G37*
G36*
X7627301D02*
X7614758Y2981943D01*
X7599845Y2973333D01*
X7587669Y2961157D01*
X7579059Y2946244D01*
X7575698Y2933700D01*
X7627301D01*
Y2985304D01*
D02*
G37*
G36*
X7704305Y2908300D02*
X7652701D01*
Y2856696D01*
X7665245Y2860057D01*
X7680158Y2868667D01*
X7692334Y2880843D01*
X7700944Y2895756D01*
X7704305Y2908300D01*
D02*
G37*
G36*
X7627301D02*
X7575698D01*
X7579059Y2895756D01*
X7587669Y2880843D01*
X7599845Y2868667D01*
X7614758Y2860057D01*
X7627301Y2856696D01*
Y2908300D01*
D02*
G37*
G36*
X9745071Y2876200D02*
X9725929D01*
X9707439Y2871246D01*
X9690861Y2861674D01*
X9677326Y2848139D01*
X9667754Y2831561D01*
X9662800Y2813071D01*
Y2793929D01*
X9667754Y2775439D01*
X9677326Y2758861D01*
X9690861Y2745326D01*
X9707439Y2735754D01*
X9725929Y2730800D01*
X9745071D01*
X9763561Y2735754D01*
X9780139Y2745326D01*
X9793674Y2758861D01*
X9803246Y2775439D01*
X9808200Y2793929D01*
Y2813071D01*
X9803246Y2831561D01*
X9793674Y2848139D01*
X9780139Y2861674D01*
X9763561Y2871246D01*
X9745071Y2876200D01*
D02*
G37*
G36*
X9808200Y2676200D02*
X9662800D01*
Y2530800D01*
X9808200D01*
Y2676200D01*
D02*
G37*
G36*
X5629901Y2352299D02*
X5484502D01*
Y2206899D01*
X5629901D01*
Y2352299D01*
D02*
G37*
G36*
X9748200Y2180509D02*
Y2108201D01*
X9820509D01*
X9815080Y2128463D01*
X9803837Y2147937D01*
X9787937Y2163837D01*
X9768463Y2175080D01*
X9748200Y2180509D01*
D02*
G37*
G36*
X9722800Y2180510D02*
X9702537Y2175080D01*
X9683063Y2163837D01*
X9667163Y2147937D01*
X9655920Y2128463D01*
X9650491Y2108201D01*
X9722800D01*
Y2180510D01*
D02*
G37*
G36*
X9820510Y2082801D02*
X9748200D01*
Y2010491D01*
X9768463Y2015920D01*
X9787937Y2027163D01*
X9803837Y2043063D01*
X9815080Y2062537D01*
X9820510Y2082801D01*
D02*
G37*
G36*
X9722800D02*
X9650490D01*
X9655920Y2062537D01*
X9667163Y2043063D01*
X9683063Y2027163D01*
X9702537Y2015920D01*
X9722800Y2010490D01*
Y2082801D01*
D02*
G37*
G36*
X5566773Y2152299D02*
X5547630D01*
X5529140Y2147345D01*
X5512563Y2137774D01*
X5499027Y2124238D01*
X5489456Y2107661D01*
X5484502Y2089171D01*
Y2070028D01*
X5489456Y2051538D01*
X5499027Y2034961D01*
X5512563Y2021425D01*
X5529140Y2011854D01*
X5547630Y2006900D01*
X5566773D01*
X5585263Y2011854D01*
X5601840Y2021425D01*
X5615376Y2034961D01*
X5624947Y2051538D01*
X5629901Y2070028D01*
Y2089171D01*
X5624947Y2107661D01*
X5615376Y2124238D01*
X5601840Y2137774D01*
X5585263Y2147345D01*
X5566773Y2152299D01*
D02*
G37*
G36*
X8412483Y2033900D02*
X8391517D01*
X8372148Y2025877D01*
X8357323Y2011052D01*
X8349300Y1991683D01*
Y1970717D01*
X8350938Y1966763D01*
X7824888Y1440712D01*
X7819274Y1432311D01*
X7817302Y1422400D01*
Y1117602D01*
X7819274Y1107691D01*
X7824888Y1099289D01*
X7944540Y979637D01*
X7942902Y975683D01*
Y954717D01*
X7950925Y935348D01*
X7965749Y920523D01*
X7985119Y912500D01*
X8006084D01*
X8025454Y920523D01*
X8040278Y935348D01*
X8048301Y954717D01*
Y975683D01*
X8040278Y995052D01*
X8025454Y1009877D01*
X8006084Y1017900D01*
X7985119D01*
X7981164Y1016262D01*
X7869098Y1128329D01*
Y1411673D01*
X8387563Y1930138D01*
X8391517Y1928500D01*
X8412483D01*
X8431852Y1936523D01*
X8446677Y1951348D01*
X8454700Y1970717D01*
Y1991683D01*
X8446677Y2011052D01*
X8431852Y2025877D01*
X8412483Y2033900D01*
D02*
G37*
G36*
X7643966Y3227700D02*
X7623001D01*
X7603632Y3219677D01*
X7588807Y3204852D01*
X7580784Y3185483D01*
Y3164517D01*
X7588807Y3145148D01*
X7603632Y3130323D01*
X7623001Y3122300D01*
X7643966D01*
X7647921Y3123938D01*
X8694671Y2077188D01*
X8703073Y2071574D01*
X8712984Y2069602D01*
X8738343D01*
X8875809Y1932137D01*
X8874171Y1928183D01*
Y1907217D01*
X8882194Y1887848D01*
X8897019Y1873023D01*
X8916388Y1865000D01*
X8937353D01*
X8956723Y1873023D01*
X8971547Y1887848D01*
X8979571Y1907217D01*
Y1928183D01*
X8971547Y1947552D01*
X8956723Y1962377D01*
X8937353Y1970400D01*
X8916388D01*
X8912434Y1968762D01*
X8767383Y2113812D01*
X8758981Y2119426D01*
X8749071Y2121398D01*
X8723711D01*
X7684546Y3160563D01*
X7686184Y3164517D01*
Y3185483D01*
X7678161Y3204852D01*
X7663336Y3219677D01*
X7643966Y3227700D01*
D02*
G37*
G36*
X9808200Y1968200D02*
X9662800D01*
Y1822800D01*
X9808200D01*
Y1968200D01*
D02*
G37*
G36*
X5566773Y1952300D02*
X5547630D01*
X5529140Y1947346D01*
X5512563Y1937774D01*
X5499027Y1924239D01*
X5489456Y1907661D01*
X5484502Y1889171D01*
Y1870029D01*
X5489456Y1851539D01*
X5499027Y1834961D01*
X5512563Y1821426D01*
X5529140Y1811854D01*
X5547630Y1806900D01*
X5566773D01*
X5585263Y1811854D01*
X5601840Y1821426D01*
X5615376Y1834961D01*
X5624947Y1851539D01*
X5629901Y1870029D01*
Y1889171D01*
X5624947Y1907661D01*
X5615376Y1924239D01*
X5601840Y1937774D01*
X5585263Y1947346D01*
X5566773Y1952300D01*
D02*
G37*
G36*
X5569901Y1764610D02*
Y1692300D01*
X5642211D01*
X5636781Y1712564D01*
X5625538Y1732037D01*
X5609638Y1747937D01*
X5590165Y1759180D01*
X5569901Y1764610D01*
D02*
G37*
G36*
X5544501D02*
X5524238Y1759180D01*
X5504765Y1747937D01*
X5488865Y1732037D01*
X5477622Y1712564D01*
X5472192Y1692300D01*
X5544501D01*
Y1764610D01*
D02*
G37*
G36*
X5642211Y1666900D02*
X5569901D01*
Y1594591D01*
X5590165Y1600020D01*
X5609638Y1611263D01*
X5625538Y1627164D01*
X5636781Y1646637D01*
X5642211Y1666900D01*
D02*
G37*
G36*
X5544501D02*
X5472192D01*
X5477622Y1646637D01*
X5488865Y1627164D01*
X5504765Y1611263D01*
X5524238Y1600020D01*
X5544501Y1594591D01*
Y1666900D01*
D02*
G37*
G36*
X7775998Y1029504D02*
Y977900D01*
X7827602D01*
X7824241Y990444D01*
X7815631Y1005357D01*
X7803455Y1017533D01*
X7788542Y1026143D01*
X7775998Y1029504D01*
D02*
G37*
G36*
X7750598D02*
X7738055Y1026143D01*
X7723142Y1017533D01*
X7710965Y1005357D01*
X7702355Y990444D01*
X7698994Y977900D01*
X7750598D01*
Y1029504D01*
D02*
G37*
G36*
X7827602Y952500D02*
X7775998D01*
Y900896D01*
X7788542Y904257D01*
X7803455Y912867D01*
X7815631Y925043D01*
X7824241Y939956D01*
X7827602Y952500D01*
D02*
G37*
G36*
X7750598D02*
X7698994D01*
X7702355Y939956D01*
X7710965Y925043D01*
X7723142Y912867D01*
X7738055Y904257D01*
X7750598Y900896D01*
Y952500D01*
D02*
G37*
G36*
X8010200Y522600D02*
X7777800D01*
Y290200D01*
X8010200D01*
Y522600D01*
D02*
G37*
G36*
X7655298D02*
X7624702D01*
X7595148Y514681D01*
X7568651Y499383D01*
X7547017Y477749D01*
X7531719Y451252D01*
X7523800Y421698D01*
Y391102D01*
X7531719Y361548D01*
X7547017Y335051D01*
X7568651Y313417D01*
X7595148Y298119D01*
X7624702Y290200D01*
X7655298D01*
X7684852Y298119D01*
X7711349Y313417D01*
X7732983Y335051D01*
X7748281Y361548D01*
X7756200Y391102D01*
Y421698D01*
X7748281Y451252D01*
X7732983Y477749D01*
X7711349Y499383D01*
X7684852Y514681D01*
X7655298Y522600D01*
D02*
G37*
G36*
X7401298D02*
X7370702D01*
X7341148Y514681D01*
X7314651Y499383D01*
X7293017Y477749D01*
X7277719Y451252D01*
X7269800Y421698D01*
Y391102D01*
X7277719Y361548D01*
X7293017Y335051D01*
X7314651Y313417D01*
X7341148Y298119D01*
X7370702Y290200D01*
X7401298D01*
X7430852Y298119D01*
X7457349Y313417D01*
X7478983Y335051D01*
X7494281Y361548D01*
X7502200Y391102D01*
Y421698D01*
X7494281Y451252D01*
X7478983Y477749D01*
X7457349Y499383D01*
X7430852Y514681D01*
X7401298Y522600D01*
D02*
G37*
G36*
X8919573Y390200D02*
X8900430D01*
X8881940Y385246D01*
X8865363Y375674D01*
X8851827Y362139D01*
X8842256Y345561D01*
X8837302Y327071D01*
Y307929D01*
X8842256Y289439D01*
X8851827Y272861D01*
X8865363Y259326D01*
X8881940Y249754D01*
X8900430Y244800D01*
X8919573D01*
X8938063Y249754D01*
X8954640Y259326D01*
X8968176Y272861D01*
X8977747Y289439D01*
X8982701Y307929D01*
Y327071D01*
X8977747Y345561D01*
X8968176Y362139D01*
X8954640Y375674D01*
X8938063Y385246D01*
X8919573Y390200D01*
D02*
G37*
G36*
X8782702D02*
X8637302D01*
Y244800D01*
X8782702D01*
Y390200D01*
D02*
G37*
G36*
X6643072D02*
X6623930D01*
X6605440Y385246D01*
X6588862Y375674D01*
X6575327Y362139D01*
X6565755Y345561D01*
X6560801Y327071D01*
Y307929D01*
X6565755Y289439D01*
X6575327Y272861D01*
X6588862Y259326D01*
X6605440Y249754D01*
X6623930Y244800D01*
X6643072D01*
X6661562Y249754D01*
X6678140Y259326D01*
X6691675Y272861D01*
X6701247Y289439D01*
X6706201Y307929D01*
Y327071D01*
X6701247Y345561D01*
X6691675Y362139D01*
X6678140Y375674D01*
X6661562Y385246D01*
X6643072Y390200D01*
D02*
G37*
G36*
X6506201D02*
X6360802D01*
Y244800D01*
X6506201D01*
Y390200D01*
D02*
G37*
G36*
X9721936Y522699D02*
X9678069D01*
X9635043Y514141D01*
X9594514Y497353D01*
X9558040Y472982D01*
X9527020Y441962D01*
X9502649Y405487D01*
X9485861Y364959D01*
X9477303Y321933D01*
Y278065D01*
X9485861Y235040D01*
X9502649Y194511D01*
X9527020Y158037D01*
X9558040Y127017D01*
X9594514Y102645D01*
X9635043Y85858D01*
X9678069Y77300D01*
X9721936D01*
X9764962Y85858D01*
X9805490Y102645D01*
X9841965Y127017D01*
X9872985Y158037D01*
X9897356Y194511D01*
X9914144Y235040D01*
X9922702Y278065D01*
Y321933D01*
X9914144Y364959D01*
X9897356Y405487D01*
X9872985Y441962D01*
X9841965Y472982D01*
X9805490Y497353D01*
X9764962Y514141D01*
X9721936Y522699D01*
D02*
G37*
G36*
X5421935D02*
X5378067D01*
X5335042Y514141D01*
X5294513Y497353D01*
X5258038Y472982D01*
X5227019Y441962D01*
X5202647Y405487D01*
X5185859Y364959D01*
X5177301Y321933D01*
Y278065D01*
X5185859Y235040D01*
X5202647Y194511D01*
X5227019Y158037D01*
X5258038Y127017D01*
X5294513Y102645D01*
X5335042Y85858D01*
X5378067Y77300D01*
X5421935D01*
X5464960Y85858D01*
X5505489Y102645D01*
X5541964Y127017D01*
X5572983Y158037D01*
X5597355Y194511D01*
X5614142Y235040D01*
X5622701Y278065D01*
Y321933D01*
X5614142Y364959D01*
X5597355Y405487D01*
X5572983Y441962D01*
X5541964Y472982D01*
X5505489Y497353D01*
X5464960Y514141D01*
X5421935Y522699D01*
D02*
G37*
G36*
X4623185Y6935400D02*
X4612700D01*
Y6712700D01*
X4835400D01*
Y6723185D01*
X4826353Y6768664D01*
X4808609Y6811504D01*
X4782847Y6850059D01*
X4750059Y6882847D01*
X4711504Y6908609D01*
X4668664Y6926353D01*
X4623185Y6935400D01*
D02*
G37*
G36*
X4587300D02*
X4576815D01*
X4531336Y6926353D01*
X4488496Y6908609D01*
X4449941Y6882847D01*
X4417153Y6850059D01*
X4391391Y6811504D01*
X4373647Y6768664D01*
X4364600Y6723185D01*
Y6712700D01*
X4587300D01*
Y6935400D01*
D02*
G37*
G36*
X323185D02*
X312700D01*
Y6712700D01*
X535400D01*
Y6723185D01*
X526353Y6768664D01*
X508609Y6811504D01*
X482847Y6850059D01*
X450059Y6882847D01*
X411504Y6908609D01*
X368663Y6926353D01*
X323185Y6935400D01*
D02*
G37*
G36*
X287300D02*
X276815D01*
X231336Y6926353D01*
X188496Y6908609D01*
X149941Y6882847D01*
X117153Y6850059D01*
X91391Y6811504D01*
X73647Y6768664D01*
X64600Y6723185D01*
Y6712700D01*
X287300D01*
Y6935400D01*
D02*
G37*
G36*
X4835400Y6687300D02*
X4612700D01*
Y6464600D01*
X4623185D01*
X4668664Y6473647D01*
X4711504Y6491391D01*
X4750059Y6517153D01*
X4782847Y6549941D01*
X4808609Y6588496D01*
X4826353Y6631336D01*
X4835400Y6676815D01*
Y6687300D01*
D02*
G37*
G36*
X4587300D02*
X4364600D01*
Y6676815D01*
X4373647Y6631336D01*
X4391391Y6588496D01*
X4417153Y6549941D01*
X4449941Y6517153D01*
X4488496Y6491391D01*
X4531336Y6473647D01*
X4576815Y6464600D01*
X4587300D01*
Y6687300D01*
D02*
G37*
G36*
X535400D02*
X312700D01*
Y6464600D01*
X323185D01*
X368663Y6473647D01*
X411504Y6491391D01*
X450059Y6517153D01*
X482847Y6549941D01*
X508609Y6588496D01*
X526353Y6631336D01*
X535400Y6676815D01*
Y6687300D01*
D02*
G37*
G36*
X287300D02*
X64600D01*
Y6676815D01*
X73647Y6631336D01*
X91391Y6588496D01*
X117153Y6549941D01*
X149941Y6517153D01*
X188496Y6491391D01*
X231336Y6473647D01*
X276815Y6464600D01*
X287300D01*
Y6687300D01*
D02*
G37*
G36*
X2830400Y5935400D02*
X2612699D01*
Y5772699D01*
X2830400D01*
Y5935400D01*
D02*
G37*
G36*
X2587299D02*
X2369600D01*
Y5772699D01*
X2587299D01*
Y5935400D01*
D02*
G37*
G36*
X2830400Y5747299D02*
X2612699D01*
Y5584600D01*
X2830400D01*
Y5747299D01*
D02*
G37*
G36*
X2587299D02*
X2369600D01*
Y5584600D01*
X2587299D01*
Y5747299D01*
D02*
G37*
G36*
X3313218Y5580400D02*
X3312700D01*
Y5492700D01*
X3400400D01*
Y5493218D01*
X3393558Y5518753D01*
X3380340Y5541647D01*
X3361647Y5560340D01*
X3338753Y5573558D01*
X3313218Y5580400D01*
D02*
G37*
G36*
X3287300D02*
X3286782D01*
X3261247Y5573558D01*
X3238353Y5560340D01*
X3219660Y5541647D01*
X3206442Y5518753D01*
X3199600Y5493218D01*
Y5492700D01*
X3287300D01*
Y5580400D01*
D02*
G37*
G36*
X1861546Y5567700D02*
X1838454D01*
X1816149Y5561723D01*
X1796151Y5550177D01*
X1779823Y5533849D01*
X1768277Y5513851D01*
X1762300Y5491546D01*
Y5468454D01*
X1768277Y5446149D01*
X1779823Y5426151D01*
X1796151Y5409823D01*
X1816149Y5398277D01*
X1838454Y5392300D01*
X1861546D01*
X1883851Y5398277D01*
X1903849Y5409823D01*
X1920177Y5426151D01*
X1931723Y5446149D01*
X1937700Y5468454D01*
Y5491546D01*
X1931723Y5513851D01*
X1920177Y5533849D01*
X1903849Y5550177D01*
X1883851Y5561723D01*
X1861546Y5567700D01*
D02*
G37*
G36*
X3400400Y5467300D02*
X3312700D01*
Y5379600D01*
X3313218D01*
X3338753Y5386442D01*
X3361647Y5399660D01*
X3380340Y5418353D01*
X3393558Y5441247D01*
X3400400Y5466782D01*
Y5467300D01*
D02*
G37*
G36*
X3287300D02*
X3199600D01*
Y5466782D01*
X3206442Y5441247D01*
X3219660Y5418353D01*
X3238353Y5399660D01*
X3261247Y5386442D01*
X3286782Y5379600D01*
X3287300D01*
Y5467300D01*
D02*
G37*
G36*
X1863218Y5330400D02*
X1862701D01*
Y5242700D01*
X1950400D01*
Y5243218D01*
X1943558Y5268753D01*
X1930340Y5291647D01*
X1911647Y5310340D01*
X1888753Y5323558D01*
X1863218Y5330400D01*
D02*
G37*
G36*
X1837301D02*
X1836782D01*
X1811247Y5323558D01*
X1788353Y5310340D01*
X1769660Y5291647D01*
X1756442Y5268753D01*
X1749600Y5243218D01*
Y5242700D01*
X1837301D01*
Y5330400D01*
D02*
G37*
G36*
X1950400Y5217300D02*
X1862701D01*
Y5129600D01*
X1863218D01*
X1888753Y5136442D01*
X1911647Y5149660D01*
X1930340Y5168353D01*
X1943558Y5191247D01*
X1950400Y5216782D01*
Y5217300D01*
D02*
G37*
G36*
X1837301D02*
X1749600D01*
Y5216782D01*
X1756442Y5191247D01*
X1769660Y5168353D01*
X1788353Y5149660D01*
X1811247Y5136442D01*
X1836782Y5129600D01*
X1837301D01*
Y5217300D01*
D02*
G37*
G36*
X326701Y5152700D02*
X181302D01*
Y5007300D01*
X326701D01*
Y5152700D01*
D02*
G37*
G36*
X266702Y4965010D02*
Y4892700D01*
X339011D01*
X333582Y4912964D01*
X322338Y4932437D01*
X306438Y4948337D01*
X286965Y4959580D01*
X266702Y4965010D01*
D02*
G37*
G36*
X241302D02*
X221038Y4959580D01*
X201565Y4948337D01*
X185665Y4932437D01*
X174422Y4912964D01*
X168992Y4892700D01*
X241302D01*
Y4965010D01*
D02*
G37*
G36*
X3311546Y5067700D02*
X3288454D01*
X3266149Y5061723D01*
X3246151Y5050177D01*
X3229823Y5033849D01*
X3218277Y5013851D01*
X3212300Y4991546D01*
Y4968454D01*
X3218277Y4946149D01*
X3229823Y4926151D01*
X3246151Y4909823D01*
X3266149Y4898277D01*
X3288454Y4892300D01*
X3311546D01*
X3333851Y4898277D01*
X3353849Y4909823D01*
X3370177Y4926151D01*
X3381723Y4946149D01*
X3387700Y4968454D01*
Y4991546D01*
X3381723Y5013851D01*
X3370177Y5033849D01*
X3353849Y5050177D01*
X3333851Y5061723D01*
X3311546Y5067700D01*
D02*
G37*
G36*
X1861546D02*
X1838454D01*
X1816149Y5061723D01*
X1796151Y5050177D01*
X1779823Y5033849D01*
X1768277Y5013851D01*
X1762300Y4991546D01*
Y4968454D01*
X1768277Y4946149D01*
X1779823Y4926151D01*
X1796151Y4909823D01*
X1816149Y4898277D01*
X1838454Y4892300D01*
X1861546D01*
X1883851Y4898277D01*
X1903849Y4909823D01*
X1920177Y4926151D01*
X1931723Y4946149D01*
X1937700Y4968454D01*
Y4991546D01*
X1931723Y5013851D01*
X1920177Y5033849D01*
X1903849Y5050177D01*
X1883851Y5061723D01*
X1861546Y5067700D01*
D02*
G37*
G36*
X339011Y4867300D02*
X266702D01*
Y4794991D01*
X286965Y4800420D01*
X306438Y4811663D01*
X322338Y4827564D01*
X333582Y4847037D01*
X339011Y4867300D01*
D02*
G37*
G36*
X241302D02*
X168992D01*
X174422Y4847037D01*
X185665Y4827564D01*
X201565Y4811663D01*
X221038Y4800420D01*
X241302Y4794991D01*
Y4867300D01*
D02*
G37*
G36*
X2830400Y4875400D02*
X2612699D01*
Y4712699D01*
X2830400D01*
Y4875400D01*
D02*
G37*
G36*
X2587299D02*
X2369600D01*
Y4712699D01*
X2587299D01*
Y4875400D01*
D02*
G37*
G36*
X2830400Y4687299D02*
X2612699D01*
Y4524600D01*
X2830400D01*
Y4687299D01*
D02*
G37*
G36*
X2587299D02*
X2369600D01*
Y4524600D01*
X2587299D01*
Y4687299D01*
D02*
G37*
G36*
X326701Y4336699D02*
X181302D01*
Y4191300D01*
X326701D01*
Y4336699D01*
D02*
G37*
G36*
X266702Y4149009D02*
Y4076700D01*
X339011D01*
X333582Y4096963D01*
X322338Y4116437D01*
X306438Y4132337D01*
X286965Y4143580D01*
X266702Y4149009D01*
D02*
G37*
G36*
X241302D02*
X221038Y4143580D01*
X201565Y4132337D01*
X185665Y4116437D01*
X174422Y4096963D01*
X168992Y4076700D01*
X241302D01*
Y4149009D01*
D02*
G37*
G36*
X339011Y4051300D02*
X266702D01*
Y3978991D01*
X286965Y3984420D01*
X306438Y3995663D01*
X322338Y4011563D01*
X333582Y4031037D01*
X339011Y4051300D01*
D02*
G37*
G36*
X241302D02*
X168992D01*
X174422Y4031037D01*
X185665Y4011563D01*
X201565Y3995663D01*
X221038Y3984420D01*
X241302Y3978991D01*
Y4051300D01*
D02*
G37*
G36*
X349201Y3651200D02*
X158802D01*
Y3460800D01*
X349201D01*
Y3651200D01*
D02*
G37*
G36*
X3390900Y3442504D02*
Y3390900D01*
X3442504D01*
X3439143Y3403444D01*
X3430533Y3418357D01*
X3418357Y3430533D01*
X3403444Y3439143D01*
X3390900Y3442504D01*
D02*
G37*
G36*
X3365500D02*
X3352956Y3439143D01*
X3338043Y3430533D01*
X3325867Y3418357D01*
X3317257Y3403444D01*
X3313896Y3390900D01*
X3365500D01*
Y3442504D01*
D02*
G37*
G36*
X3442504Y3365500D02*
X3390900D01*
Y3313896D01*
X3403444Y3317257D01*
X3418357Y3325867D01*
X3430533Y3338043D01*
X3439143Y3352956D01*
X3442504Y3365500D01*
D02*
G37*
G36*
X3365500D02*
X3313896D01*
X3317257Y3352956D01*
X3325867Y3338043D01*
X3338043Y3325867D01*
X3352956Y3317257D01*
X3365500Y3313896D01*
Y3365500D01*
D02*
G37*
G36*
X266535Y3397200D02*
X241468D01*
X217256Y3390712D01*
X195547Y3378179D01*
X177823Y3360454D01*
X165289Y3338746D01*
X158802Y3314533D01*
Y3289467D01*
X165289Y3265254D01*
X177823Y3243546D01*
X195547Y3225821D01*
X217256Y3213288D01*
X241468Y3206800D01*
X266535D01*
X290747Y3213288D01*
X312456Y3225821D01*
X330180Y3243546D01*
X342714Y3265254D01*
X349201Y3289467D01*
Y3314533D01*
X342714Y3338746D01*
X330180Y3360454D01*
X312456Y3378179D01*
X290747Y3390712D01*
X266535Y3397200D01*
D02*
G37*
G36*
X268207Y3155900D02*
X266702D01*
Y3060700D01*
X361901D01*
Y3062205D01*
X354548Y3089648D01*
X340343Y3114252D01*
X320254Y3134341D01*
X295649Y3148547D01*
X268207Y3155900D01*
D02*
G37*
G36*
X241302D02*
X239796D01*
X212354Y3148547D01*
X187749Y3134341D01*
X167660Y3114252D01*
X153455Y3089648D01*
X146102Y3062205D01*
Y3060700D01*
X241302D01*
Y3155900D01*
D02*
G37*
G36*
X361901Y3035300D02*
X266702D01*
Y2940100D01*
X268207D01*
X295649Y2947453D01*
X320254Y2961659D01*
X340343Y2981748D01*
X354548Y3006352D01*
X361901Y3033795D01*
Y3035300D01*
D02*
G37*
G36*
X241302D02*
X146102D01*
Y3033795D01*
X153455Y3006352D01*
X167660Y2981748D01*
X187749Y2961659D01*
X212354Y2947453D01*
X239796Y2940100D01*
X241302D01*
Y3035300D01*
D02*
G37*
G36*
X2552702Y2985304D02*
Y2933700D01*
X2604305D01*
X2600945Y2946244D01*
X2592334Y2961157D01*
X2580158Y2973333D01*
X2565245Y2981943D01*
X2552702Y2985304D01*
D02*
G37*
G36*
X2527302D02*
X2514758Y2981943D01*
X2499845Y2973333D01*
X2487669Y2961157D01*
X2479059Y2946244D01*
X2475698Y2933700D01*
X2527302D01*
Y2985304D01*
D02*
G37*
G36*
X2604305Y2908300D02*
X2552702D01*
Y2856696D01*
X2565245Y2860057D01*
X2580158Y2868667D01*
X2592334Y2880843D01*
X2600945Y2895756D01*
X2604305Y2908300D01*
D02*
G37*
G36*
X2527302D02*
X2475698D01*
X2479059Y2895756D01*
X2487669Y2880843D01*
X2499845Y2868667D01*
X2514758Y2860057D01*
X2527302Y2856696D01*
Y2908300D01*
D02*
G37*
G36*
X4645071Y2876200D02*
X4625929D01*
X4607439Y2871246D01*
X4590861Y2861674D01*
X4577326Y2848139D01*
X4567754Y2831561D01*
X4562800Y2813071D01*
Y2793929D01*
X4567754Y2775439D01*
X4577326Y2758861D01*
X4590861Y2745326D01*
X4607439Y2735754D01*
X4625929Y2730800D01*
X4645071D01*
X4663561Y2735754D01*
X4680139Y2745326D01*
X4693674Y2758861D01*
X4703246Y2775439D01*
X4708200Y2793929D01*
Y2813071D01*
X4703246Y2831561D01*
X4693674Y2848139D01*
X4680139Y2861674D01*
X4663561Y2871246D01*
X4645071Y2876200D01*
D02*
G37*
G36*
X4708200Y2676200D02*
X4562800D01*
Y2530800D01*
X4708200D01*
Y2676200D01*
D02*
G37*
G36*
X529901Y2352299D02*
X384502D01*
Y2206899D01*
X529901D01*
Y2352299D01*
D02*
G37*
G36*
X4648201Y2180509D02*
Y2108201D01*
X4720509D01*
X4715080Y2128463D01*
X4703837Y2147937D01*
X4687937Y2163837D01*
X4668463Y2175080D01*
X4648201Y2180509D01*
D02*
G37*
G36*
X4622801Y2180510D02*
X4602537Y2175080D01*
X4583063Y2163837D01*
X4567163Y2147937D01*
X4555920Y2128463D01*
X4550491Y2108201D01*
X4622801D01*
Y2180510D01*
D02*
G37*
G36*
X4720510Y2082801D02*
X4648201D01*
Y2010491D01*
X4668463Y2015920D01*
X4687937Y2027163D01*
X4703837Y2043063D01*
X4715080Y2062537D01*
X4720510Y2082801D01*
D02*
G37*
G36*
X4622801D02*
X4550490D01*
X4555920Y2062537D01*
X4567163Y2043063D01*
X4583063Y2027163D01*
X4602537Y2015920D01*
X4622801Y2010490D01*
Y2082801D01*
D02*
G37*
G36*
X466773Y2152299D02*
X447630D01*
X429140Y2147345D01*
X412563Y2137774D01*
X399027Y2124238D01*
X389456Y2107661D01*
X384502Y2089171D01*
Y2070028D01*
X389456Y2051538D01*
X399027Y2034961D01*
X412563Y2021425D01*
X429140Y2011854D01*
X447630Y2006900D01*
X466773D01*
X485263Y2011854D01*
X501840Y2021425D01*
X515376Y2034961D01*
X524947Y2051538D01*
X529901Y2070028D01*
Y2089171D01*
X524947Y2107661D01*
X515376Y2124238D01*
X501840Y2137774D01*
X485263Y2147345D01*
X466773Y2152299D01*
D02*
G37*
G36*
X3312483Y2033900D02*
X3291517D01*
X3272148Y2025877D01*
X3257323Y2011052D01*
X3249300Y1991683D01*
Y1970717D01*
X3250938Y1966763D01*
X2724888Y1440712D01*
X2719274Y1432311D01*
X2717302Y1422400D01*
Y1117602D01*
X2719274Y1107691D01*
X2724888Y1099289D01*
X2844540Y979637D01*
X2842902Y975683D01*
Y954717D01*
X2850925Y935348D01*
X2865749Y920523D01*
X2885119Y912500D01*
X2906084D01*
X2925454Y920523D01*
X2940278Y935348D01*
X2948301Y954717D01*
Y975683D01*
X2940278Y995052D01*
X2925454Y1009877D01*
X2906084Y1017900D01*
X2885119D01*
X2881164Y1016262D01*
X2769098Y1128329D01*
Y1411673D01*
X3287563Y1930138D01*
X3291517Y1928500D01*
X3312483D01*
X3331852Y1936523D01*
X3346677Y1951348D01*
X3354700Y1970717D01*
Y1991683D01*
X3346677Y2011052D01*
X3331852Y2025877D01*
X3312483Y2033900D01*
D02*
G37*
G36*
X2543966Y3227700D02*
X2523001D01*
X2503632Y3219677D01*
X2488807Y3204852D01*
X2480784Y3185483D01*
Y3164517D01*
X2488807Y3145148D01*
X2503632Y3130323D01*
X2523001Y3122300D01*
X2543966D01*
X2547921Y3123938D01*
X3594671Y2077188D01*
X3603073Y2071574D01*
X3612984Y2069602D01*
X3638343D01*
X3775809Y1932137D01*
X3774171Y1928183D01*
Y1907217D01*
X3782194Y1887848D01*
X3797019Y1873023D01*
X3816388Y1865000D01*
X3837353D01*
X3856723Y1873023D01*
X3871548Y1887848D01*
X3879571Y1907217D01*
Y1928183D01*
X3871548Y1947552D01*
X3856723Y1962377D01*
X3837353Y1970400D01*
X3816388D01*
X3812434Y1968762D01*
X3667383Y2113812D01*
X3658981Y2119426D01*
X3649071Y2121398D01*
X3623711D01*
X2584546Y3160563D01*
X2586184Y3164517D01*
Y3185483D01*
X2578161Y3204852D01*
X2563336Y3219677D01*
X2543966Y3227700D01*
D02*
G37*
G36*
X4708200Y1968200D02*
X4562800D01*
Y1822800D01*
X4708200D01*
Y1968200D01*
D02*
G37*
G36*
X466773Y1952300D02*
X447630D01*
X429140Y1947346D01*
X412563Y1937774D01*
X399027Y1924239D01*
X389456Y1907661D01*
X384502Y1889171D01*
Y1870029D01*
X389456Y1851539D01*
X399027Y1834961D01*
X412563Y1821426D01*
X429140Y1811854D01*
X447630Y1806900D01*
X466773D01*
X485263Y1811854D01*
X501840Y1821426D01*
X515376Y1834961D01*
X524947Y1851539D01*
X529901Y1870029D01*
Y1889171D01*
X524947Y1907661D01*
X515376Y1924239D01*
X501840Y1937774D01*
X485263Y1947346D01*
X466773Y1952300D01*
D02*
G37*
G36*
X469902Y1764610D02*
Y1692300D01*
X542211D01*
X536782Y1712564D01*
X525538Y1732037D01*
X509638Y1747937D01*
X490165Y1759180D01*
X469902Y1764610D01*
D02*
G37*
G36*
X444502D02*
X424238Y1759180D01*
X404765Y1747937D01*
X388865Y1732037D01*
X377622Y1712564D01*
X372192Y1692300D01*
X444502D01*
Y1764610D01*
D02*
G37*
G36*
X542211Y1666900D02*
X469902D01*
Y1594591D01*
X490165Y1600020D01*
X509638Y1611263D01*
X525538Y1627164D01*
X536782Y1646637D01*
X542211Y1666900D01*
D02*
G37*
G36*
X444502D02*
X372192D01*
X377622Y1646637D01*
X388865Y1627164D01*
X404765Y1611263D01*
X424238Y1600020D01*
X444502Y1594591D01*
Y1666900D01*
D02*
G37*
G36*
X2675998Y1029504D02*
Y977900D01*
X2727602D01*
X2724241Y990444D01*
X2715631Y1005357D01*
X2703455Y1017533D01*
X2688542Y1026143D01*
X2675998Y1029504D01*
D02*
G37*
G36*
X2650598D02*
X2638055Y1026143D01*
X2623142Y1017533D01*
X2610965Y1005357D01*
X2602355Y990444D01*
X2598994Y977900D01*
X2650598D01*
Y1029504D01*
D02*
G37*
G36*
X2727602Y952500D02*
X2675998D01*
Y900896D01*
X2688542Y904257D01*
X2703455Y912867D01*
X2715631Y925043D01*
X2724241Y939956D01*
X2727602Y952500D01*
D02*
G37*
G36*
X2650598D02*
X2598994D01*
X2602355Y939956D01*
X2610965Y925043D01*
X2623142Y912867D01*
X2638055Y904257D01*
X2650598Y900896D01*
Y952500D01*
D02*
G37*
G36*
X2910200Y522600D02*
X2677800D01*
Y290200D01*
X2910200D01*
Y522600D01*
D02*
G37*
G36*
X2555298D02*
X2524702D01*
X2495148Y514681D01*
X2468651Y499383D01*
X2447017Y477749D01*
X2431719Y451252D01*
X2423800Y421698D01*
Y391102D01*
X2431719Y361548D01*
X2447017Y335051D01*
X2468651Y313417D01*
X2495148Y298119D01*
X2524702Y290200D01*
X2555298D01*
X2584852Y298119D01*
X2611349Y313417D01*
X2632983Y335051D01*
X2648281Y361548D01*
X2656200Y391102D01*
Y421698D01*
X2648281Y451252D01*
X2632983Y477749D01*
X2611349Y499383D01*
X2584852Y514681D01*
X2555298Y522600D01*
D02*
G37*
G36*
X2301298D02*
X2270702D01*
X2241148Y514681D01*
X2214651Y499383D01*
X2193017Y477749D01*
X2177719Y451252D01*
X2169800Y421698D01*
Y391102D01*
X2177719Y361548D01*
X2193017Y335051D01*
X2214651Y313417D01*
X2241148Y298119D01*
X2270702Y290200D01*
X2301298D01*
X2330852Y298119D01*
X2357349Y313417D01*
X2378983Y335051D01*
X2394281Y361548D01*
X2402200Y391102D01*
Y421698D01*
X2394281Y451252D01*
X2378983Y477749D01*
X2357349Y499383D01*
X2330852Y514681D01*
X2301298Y522600D01*
D02*
G37*
G36*
X3819573Y390200D02*
X3800430D01*
X3781940Y385246D01*
X3765363Y375674D01*
X3751827Y362139D01*
X3742256Y345561D01*
X3737302Y327071D01*
Y307929D01*
X3742256Y289439D01*
X3751827Y272861D01*
X3765363Y259326D01*
X3781940Y249754D01*
X3800430Y244800D01*
X3819573D01*
X3838063Y249754D01*
X3854640Y259326D01*
X3868176Y272861D01*
X3877747Y289439D01*
X3882701Y307929D01*
Y327071D01*
X3877747Y345561D01*
X3868176Y362139D01*
X3854640Y375674D01*
X3838063Y385246D01*
X3819573Y390200D01*
D02*
G37*
G36*
X3682702D02*
X3537302D01*
Y244800D01*
X3682702D01*
Y390200D01*
D02*
G37*
G36*
X1543072D02*
X1523930D01*
X1505440Y385246D01*
X1488862Y375674D01*
X1475327Y362139D01*
X1465756Y345561D01*
X1460801Y327071D01*
Y307929D01*
X1465756Y289439D01*
X1475327Y272861D01*
X1488862Y259326D01*
X1505440Y249754D01*
X1523930Y244800D01*
X1543072D01*
X1561562Y249754D01*
X1578140Y259326D01*
X1591676Y272861D01*
X1601247Y289439D01*
X1606201Y307929D01*
Y327071D01*
X1601247Y345561D01*
X1591676Y362139D01*
X1578140Y375674D01*
X1561562Y385246D01*
X1543072Y390200D01*
D02*
G37*
G36*
X1406201D02*
X1260802D01*
Y244800D01*
X1406201D01*
Y390200D01*
D02*
G37*
G36*
X4621936Y522699D02*
X4578069D01*
X4535043Y514141D01*
X4494515Y497353D01*
X4458040Y472982D01*
X4427020Y441962D01*
X4402649Y405487D01*
X4385861Y364959D01*
X4377303Y321933D01*
Y278065D01*
X4385861Y235040D01*
X4402649Y194511D01*
X4427020Y158037D01*
X4458040Y127017D01*
X4494515Y102645D01*
X4535043Y85858D01*
X4578069Y77300D01*
X4621936D01*
X4664962Y85858D01*
X4705490Y102645D01*
X4741965Y127017D01*
X4772985Y158037D01*
X4797356Y194511D01*
X4814144Y235040D01*
X4822702Y278065D01*
Y321933D01*
X4814144Y364959D01*
X4797356Y405487D01*
X4772985Y441962D01*
X4741965Y472982D01*
X4705490Y497353D01*
X4664962Y514141D01*
X4621936Y522699D01*
D02*
G37*
G36*
X321935D02*
X278067D01*
X235042Y514141D01*
X194513Y497353D01*
X158038Y472982D01*
X127019Y441962D01*
X102647Y405487D01*
X85859Y364959D01*
X77301Y321933D01*
Y278065D01*
X85859Y235040D01*
X102647Y194511D01*
X127019Y158037D01*
X158038Y127017D01*
X194513Y102645D01*
X235042Y85858D01*
X278067Y77300D01*
X321935D01*
X364960Y85858D01*
X405489Y102645D01*
X441964Y127017D01*
X472983Y158037D01*
X497355Y194511D01*
X514142Y235040D01*
X522701Y278065D01*
Y321933D01*
X514142Y364959D01*
X497355Y405487D01*
X472983Y441962D01*
X441964Y472982D01*
X405489Y497353D01*
X364960Y514141D01*
X321935Y522699D01*
D02*
G37*
%LPD*%
D27*
X3612984Y2095500D02*
X3649071D01*
X3826871Y1917700D01*
X2533484Y3175000D02*
X3612984Y2095500D01*
X2743200Y1422400D02*
X3302000Y1981200D01*
X2743200Y1117602D02*
Y1422400D01*
Y1117602D02*
X2895602Y965200D01*
X8712984Y2095500D02*
X8749071D01*
X8926871Y1917700D01*
X7633484Y3175000D02*
X8712984Y2095500D01*
X7843200Y1422400D02*
X8402000Y1981200D01*
X7843200Y1117602D02*
Y1422400D01*
Y1117602D02*
X7995601Y965200D01*
D30*
X4500001Y8199998D02*
D03*
Y9100001D02*
D03*
X2600000Y9300001D02*
D03*
X9600001Y8199998D02*
D03*
Y9100001D02*
D03*
X7700000Y9300001D02*
D03*
X4635500Y1895500D02*
D03*
Y2603500D02*
D03*
X254002Y4264000D02*
D03*
Y5080000D02*
D03*
X457202Y2279599D02*
D03*
X9735500Y1895500D02*
D03*
Y2603500D02*
D03*
X5354001Y4264000D02*
D03*
Y5080000D02*
D03*
X5557201Y2279599D02*
D03*
D31*
X4500001Y7999998D02*
D03*
X3800003Y8270000D02*
D03*
Y7770001D02*
D03*
X4500001Y8900002D02*
D03*
X4000002Y9200001D02*
D03*
Y8700002D02*
D03*
X2600000Y8800002D02*
D03*
X9600001Y7999998D02*
D03*
X8900003Y8270000D02*
D03*
Y7770001D02*
D03*
X9600001Y8900002D02*
D03*
X9100002Y9200001D02*
D03*
Y8700002D02*
D03*
X7700000Y8800002D02*
D03*
X4635500Y2095500D02*
D03*
Y2803500D02*
D03*
X1533501Y317500D02*
D03*
X3810002D02*
D03*
X254002Y4064000D02*
D03*
Y4880000D02*
D03*
X457202Y2079600D02*
D03*
Y1879600D02*
D03*
Y1679600D02*
D03*
X9735500Y2095500D02*
D03*
Y2803500D02*
D03*
X6633501Y317500D02*
D03*
X8910001D02*
D03*
X5354001Y4064000D02*
D03*
Y4880000D02*
D03*
X5557201Y2079600D02*
D03*
Y1879600D02*
D03*
Y1679600D02*
D03*
D32*
X3352399Y7970001D02*
D03*
X3199999D02*
D03*
X3047599D02*
D03*
X3499998Y8900002D02*
D03*
X8452399Y7970001D02*
D03*
X8299999D02*
D03*
X8147599D02*
D03*
X8599998Y8900002D02*
D03*
D33*
X4600001Y7399999D02*
D03*
Y9700000D02*
D03*
X299999D02*
D03*
Y7399999D02*
D03*
X9700001D02*
D03*
Y9700000D02*
D03*
X5399999D02*
D03*
Y7399999D02*
D03*
X4600000Y6700000D02*
D03*
X300000D02*
D03*
X300001Y299999D02*
D03*
X4600002D02*
D03*
X9700000Y6700000D02*
D03*
X5400000D02*
D03*
X5400001Y299999D02*
D03*
X9700002D02*
D03*
D34*
X3499998Y9100001D02*
D03*
X8599998D02*
D03*
D35*
X1850000Y4980000D02*
D03*
Y5480000D02*
D03*
Y5230000D02*
D03*
X3300000Y4980000D02*
D03*
Y5480000D02*
D03*
X6950000Y4980000D02*
D03*
Y5480000D02*
D03*
Y5230000D02*
D03*
X8400000Y4980000D02*
D03*
Y5480000D02*
D03*
D36*
X2600000Y4700000D02*
D03*
Y5760000D02*
D03*
X7700000Y4700000D02*
D03*
Y5760000D02*
D03*
D37*
X2286000Y406400D02*
D03*
X2540000D02*
D03*
X7386000D02*
D03*
X7640000D02*
D03*
D38*
X2794000D02*
D03*
X7894000D02*
D03*
D39*
X1333502Y317500D02*
D03*
X3610002D02*
D03*
X6433501D02*
D03*
X8710002D02*
D03*
D40*
X254002Y3048000D02*
D03*
Y3302000D02*
D03*
X5354001Y3048000D02*
D03*
Y3302000D02*
D03*
D41*
X254002Y3556000D02*
D03*
X5354001D02*
D03*
D42*
X3826871Y1917700D02*
D03*
X3302000Y1981200D02*
D03*
X2533484Y3175000D02*
D03*
X3378200Y3378200D02*
D03*
X2540002Y2921000D02*
D03*
X2895602Y965200D02*
D03*
X2663298D02*
D03*
X8926871Y1917700D02*
D03*
X8402000Y1981200D02*
D03*
X7633484Y3175000D02*
D03*
X8478200Y3378200D02*
D03*
X7640001Y2921000D02*
D03*
X7995601Y965200D02*
D03*
X7763298D02*
D03*
%TF.MD5,e45abf19deda9616891c154bd3a4e825*%
M02*
