%TF.GenerationSoftware,Altium Limited,Altium Designer,24.3.1 (35)*%
G04 Layer_Color=32896*
%FSLAX45Y45*%
%MOMM*%
%TF.SameCoordinates,C0A1E697-D952-45A1-8973-6DB72EE3D4FA*%
%TF.FilePolarity,Positive*%
%TF.FileFunction,Legend,Bot*%
%TF.Part,CustomerPanel*%
G01*
G75*
%TA.AperFunction,NonConductor*%
%ADD44C,0.20000*%
%ADD46C,0.10000*%
D44*
X1630000Y4980000D02*
G03*
X1650000Y4980000I10000J0D01*
G01*
D02*
G03*
X1630000Y4980000I-10000J0D01*
G01*
X6730000D02*
G03*
X6750000Y4980000I10000J0D01*
G01*
D02*
G03*
X6730000Y4980000I-10000J0D01*
G01*
D46*
X1850000Y5815000D02*
X2300000D01*
X1850000Y5630000D02*
Y5815000D01*
Y4645000D02*
X2300000D01*
X1850000D02*
Y4830000D01*
X2900000Y4645000D02*
X3200000D01*
Y4880000D01*
Y5580000D02*
Y5815000D01*
X2950000D02*
X3200000D01*
X2900000D02*
X2950000D01*
X6950000D02*
X7400000D01*
X6950000Y5630000D02*
Y5815000D01*
Y4645000D02*
X7400000D01*
X6950000D02*
Y4830000D01*
X8000000Y4645000D02*
X8300000D01*
Y4880000D01*
Y5580000D02*
Y5815000D01*
X8050000D02*
X8300000D01*
X8000000D02*
X8050000D01*
%TF.MD5,a4c6fbcea4f1cd18aac9360b4d0f32c8*%
M02*
